<?xml version="1.0" encoding="UTF-8"?>
<svg xmlns="http://www.w3.org/2000/svg" viewBox="0 0 366.21 377.09">
  <defs>
    <style>.cls-1{isolation:isolate;}.cls-2,.cls-7,.cls-8{fill:#006fff;}.cls-2{opacity:0.19;}.cls-3{fill:#fff1ef;}.cls-4{fill:#0a8045;}.cls-5{fill:#3eb77d;}.cls-37,.cls-6{fill:none;stroke-linecap:round;stroke-linejoin:round;}.cls-6{stroke:#fff1ef;stroke-width:2px;}.cls-7{opacity:0.6;}.cls-9{fill:#66a9ff;}.cls-10,.cls-13{fill:#fff;}.cls-11{fill:#3c3c3b;}.cls-12{fill:#ff8066;}.cls-13{opacity:0.78;}.cls-14{fill:#ffc4c0;}.cls-15{fill:#b18d8b;}.cls-16{fill:#d6e8ff;}.cls-17{fill:#27427a;}.cls-18{fill:#60809c;}.cls-19{fill:#527483;}.cls-20,.cls-23{fill:#8885b9;}.cls-21{fill:#005eb9;}.cls-22{fill:#005ab1;}.cls-23{opacity:0.48;}.cls-23,.cls-32{mix-blend-mode:multiply;}.cls-24{fill:#d6e7ff;}.cls-25{fill:#eab755;}.cls-26{fill:#d6a28a;}.cls-27{fill:#ffb7a5;}.cls-28{fill:#060a11;}.cls-29{fill:#b68944;}.cls-30{fill:#b48780;}.cls-31{fill:#ea7f17;}.cls-32{fill:#afbdcb;opacity:0.43;}.cls-33{fill:#082b61;}.cls-34{fill:#f0b52d;}.cls-35{fill:#d5d5d5;}.cls-36{fill:#1a3e75;}.cls-37{stroke:#fff;stroke-width:4px;}</style>
  </defs>
  <g class="cls-1">
    <g id="Layer_2" data-name="Layer 2">
      <g id="Layer_1-2" data-name="Layer 1">
        <path class="cls-2" d="M362.51,198.7a172.48,172.48,0,0,1-5.67-62.45C361.36,91,342.56,44.71,305,18.83,263-10.1,210.36-4.7,174.43,28.22c-16.4,15-15.28,21.13-35.68,28.2-16.08,5.58-43,27.24-54.41,52.66C63.05,156.44,70.15,210.74,111.09,239c28.88,19.9,53.94,16.82,81.19-1.1,3.33,27.53,17.47,53.33,40.7,69.19a83.42,83.42,0,0,0,19.79,10l-1.54-28.78,4.05,1.15.05-.71,68.23,19.55A90.2,90.2,0,0,0,353,276.83,103.45,103.45,0,0,0,362.51,198.7Z"></path>
        <path class="cls-3" d="M312.31,224.45s1.44-14.4,12.27-10.4,10.28,11.59,10.28,11.59.19-15.16,12.46-12.2,9.56,22.34,9.56,22.34Z"></path>
        <path class="cls-4" d="M243.89,211.19s60.85-16.38,49.27-107.88C293.16,103.31,211.29,143.3,243.89,211.19Z"></path>
        <path class="cls-5" d="M239,237.6s89.06,5.72,115.18-122.26C354.17,115.34,226.16,131.7,239,237.6Z"></path>
        <line class="cls-6" x1="255.24" y1="217.82" x2="338.19" y2="133.97"></line>
        <line class="cls-6" x1="318.19" y1="154.64" x2="339.56" y2="151.74"></line>
        <line class="cls-6" x1="298.27" y1="173.35" x2="329.07" y2="173.39"></line>
        <line class="cls-6" x1="317.46" y1="130.9" x2="318.19" y2="154.64"></line>
        <line class="cls-6" x1="295.85" y1="142.18" x2="298.27" y2="173.35"></line>
        <line class="cls-6" x1="274.82" y1="162.63" x2="277.24" y2="193.81"></line>
        <line class="cls-6" x1="278.6" y1="194.96" x2="309.4" y2="194.99"></line>
        <polygon class="cls-7" points="244.6 365.82 324.08 308.22 244.6 286.15 244.6 365.82"></polygon>
        <path class="cls-8" d="M261.79,95.94a24,24,0,0,0-4.49-13.75l.07-.06a17.92,17.92,0,0,0-9.9-7.37L115.94,41.38a10.46,10.46,0,0,0-8.81,1.46l-8,6,2.52,256.77a.66.66,0,0,0,.06.34c0,9.53,6.41,18.85,14.26,20.84l133.14,36.14,5.72-4.54c4.35-3.48,6.93-6.81,6.93-13.1Z"></path>
        <path class="cls-9" d="M166.61,155.27s-72,166.38-71.78,156.57L98.42,48.62l8.52-6.17a10.56,10.56,0,0,1,8.92-1.54L247.52,74.68a17.42,17.42,0,0,1,9.79,7.52Z"></path>
        <path class="cls-10" d="M239.13,365.26,107.92,331.79c-7.88-2-13.94-11.47-13.94-21V60.21c0-9.57,6.22-15.66,14.1-13.66L239.21,80c7.88,2,13.87,11.49,13.87,21.06V351.64C253.08,361.21,247,367.26,239.13,365.26Z"></path>
        <path class="cls-11" d="M236.5,366.87,105.29,333.39c-7.88-2-13.94-11.46-13.94-21V61.82c0-9.57,6.22-15.67,14.1-13.67l131.13,33.5c7.88,2,13.87,11.48,13.87,21.06V353.24C250.45,362.81,244.37,368.87,236.5,366.87Z"></path>
        <path class="cls-12" d="M77.66,230.5h0a2.13,2.13,0,0,1-.69,2.93l-3.45,2.14a2.13,2.13,0,0,1-2.92-.69h0a2.12,2.12,0,0,1,.68-2.92l3.46-2.14A2.12,2.12,0,0,1,77.66,230.5Z"></path>
        <path class="cls-8" d="M239.66,98.54a2.83,2.83,0,0,0-2.21-2.88L106.14,62.33c-3-.75-6.62,2.19-6.62,5.28V284.79h0V309.9a2.83,2.83,0,0,0,2.2,2.88L233,346.11c2.94.75,6.62-2.19,6.62-5.28V123.65h0Z"></path>
        <path class="cls-13" d="M239.66,98.54a2.83,2.83,0,0,0-2.21-2.88L106.14,62.33c-3-.75-6.62,2.19-6.62,5.28V284.79h0V309.9a2.83,2.83,0,0,0,2.2,2.88L233,346.11c2.94.75,6.62-2.19,6.62-5.28V123.65h0Z"></path>
        <path class="cls-14" d="M36.61,235.62s13.92,11.9,17.77,8.79,15.48-11.72,15.48-11.72l5,5.07s-17.06,19.89-22.67,19.53-19.06-9-19.06-9Z"></path>
        <path class="cls-15" d="M74.14,237l.69.73s-17.06,19.89-22.67,19.53c-3.79-.24-11.17-4.27-15.55-6.86l2.3-3.79s9.19,6.5,13.19,7.05C55.61,254.18,57.25,253.5,74.14,237Z"></path>
        <path class="cls-16" d="M3.71,352.21c5.1-2.75,13.64-2.95,19.37-.51a7.29,7.29,0,0,1,3.37-3.23c5.26-2.84,14.16-3,19.89-.29s6.1,7.15.84,10c-5.1,2.76-13.64,3-19.37.52a7.34,7.34,0,0,1-3.37,3.23c-5.26,2.84-14.16,3-19.89.29S-1.55,355.05,3.71,352.21Z"></path>
        <path class="cls-17" d="M21.4,233.58s-4.18,1.16-4.18,3.31a23.55,23.55,0,0,0,.42,4.12l14-3-1.45-5.79Z"></path>
        <path class="cls-17" d="M43.4,351.2l-7.76-5.33a7,7,0,0,0-4.17,0c-.72.21-.85-.33-.79.35L30,349.09c-.65,1.92.86,3.07,3.05,3.73l7.42,2.12a5.94,5.94,0,0,0,4.82-.62l.32-.24C46.73,353.24,45.05,352.09,43.4,351.2Z"></path>
        <path class="cls-10" d="M30.72,346.76c.13,2.21,5.52,1.91,5.39-.31l-.41-7.2-5.39.31Z"></path>
        <path class="cls-18" d="M29.85,344a5.06,5.06,0,0,0,6.77-.18s3.79-44.54,2.53-67.41l-17-5.3c2.13,14,6.75,37.05,6.75,37.05C24,319.72,28.43,334,29.85,344Z"></path>
        <path class="cls-19" d="M22.16,271.13l4.76,1.48c1.31,8.31,3.34,19.18,4.79,26.7a41.12,41.12,0,0,1,0,14.84c-1.79,10.22,1.49,21.53,2.67,29.87a8,8,0,0,0,1,.63,4.91,4.91,0,0,1-5.54-.63c-1.26-8.9-4.91-21.17-2.25-31.9a22.52,22.52,0,0,0,.16-9.77C26.25,294.59,23.62,280.74,22.16,271.13Z"></path>
        <path class="cls-10" d="M11.53,352.31c-.23,2.21,5.14,2.76,5.37.55l.74-7.17-5.37-.56Z"></path>
        <path class="cls-18" d="M11.12,349.61c2.32,1.89,4.56,2.22,6.73.77,0,0,1.93-14.79,5-30.54,2.34-12.2,5.81-24.44,6.61-34.15l-15.78-9.2c.14,8.63-.5,27.62-.8,35.76a13.65,13.65,0,0,1-1.38,5.47C7.83,325.19,11.12,349.61,11.12,349.61Z"></path>
        <path class="cls-14" d="M40.5,277.5a265.52,265.52,0,0,1-.14-29.08c-.94-13.55-6.4-18.21-14.72-14.5l-3.46,1.18C12.26,241.36,7,241.44,9.61,252.21L12.05,278C12.9,290.34,42.15,291.91,40.5,277.5Z"></path>
        <path class="cls-15" d="M9.61,252.21,12.05,278c.49,7.18,10.65,10.7,18.7,9.53C21.22,282.79,14.64,269.69,9.61,252.21Z"></path>
        <path class="cls-10" d="M18,237.49s-.27,3.75,5.36,6.43a11,11,0,0,1,5.36,6.16c.5,1.28,1.22.57,1.26-.82a33.75,33.75,0,0,1,.68-7.39c.87-4.4-1.48-10.61-1.72-10.64S18,237.49,18,237.49Z"></path>
        <path class="cls-8" d="M25.23,234.13s5.3,1.2,4.53,6.15l.37,5.76s3.44-6.85,1.06-12.79S25.23,234.13,25.23,234.13Z"></path>
        <path class="cls-17" d="M27.39,234.18A7.24,7.24,0,0,1,26,236.11c-.57.35-9.17-2.63-8.93-9.52.14-4.37,8.44-4,8.44-4Z"></path>
        <path class="cls-12" d="M24.4,240.74l.42,0a2.55,2.55,0,0,0,2.73-2.36l.58-7.91a2.58,2.58,0,0,0-2.37-2.74l-.41,0a2.58,2.58,0,0,0-2.74,2.37l-1.67,7.52C20.84,239,23,240.64,24.4,240.74Z"></path>
        <path class="cls-12" d="M27.82,234.77a7,7,0,0,1-5.82-2.6s2.57,4.69,5.66,4.81Z"></path>
        <path class="cls-8" d="M20.36,233.89s-3.25,4.76,3.63,7.72c0,0,2.77,2.44,3.06,5.34,0,0-2.36-1.56-3.72-2.41S11.93,238.52,20.36,233.89Z"></path>
        <ellipse class="cls-12" cx="28.24" cy="227.05" rx="4.35" ry="7.68" transform="translate(-32.25 6.39) rotate(-8.24)"></ellipse>
        <path class="cls-12" d="M21.59,232.07c1.93,3.13,8.17,4.15,9.69,1.33s-1.05-8.45-3-11.58-4.72-3.38-6.24-.56S19.66,228.94,21.59,232.07Z"></path>
        <path d="M24,223.18s2,6.53-3.05,9c0,0-6.58-2.36-3.36-9.57,2.83-6.35,9.78-3.17,9.78-3.17Z"></path>
        <path class="cls-17" d="M32.52,226.28A6.49,6.49,0,0,0,27.6,223l2.45-2.13S33,221,32.52,226.28Z"></path>
        <path d="M22,227.6c.88-1.77,3.36-2.2,7.11-1.57a3.17,3.17,0,0,0,1.7-.13c2.52-1,2.33-4.33,2.33-4.33.17-2.28-1.44-3-3.72-3.17L23.46,218c-3.35-.27-6,2.92-6.15,5.19l-.08.38C17.05,225.79,19.68,227.42,22,227.6Z"></path>
        <path class="cls-12" d="M20.33,232.06a1.62,1.62,0,1,0,.53-2.23A1.62,1.62,0,0,0,20.33,232.06Z"></path>
        <path class="cls-17" d="M16.92,352.56l-.38,4.57a26.85,26.85,0,0,1-.8,3.87,3.32,3.32,0,0,1-2.81,2.06c-1.4.09-4.21-2.38-3.21-5.45.88-2.68,1.82-5.49,1.82-5.49C13.52,353,15.35,353.34,16.92,352.56Z"></path>
        <path class="cls-10" d="M29.52,233.22h0a2.83,2.83,0,0,0,1.28-2.53l-2.56,1C28.24,232.81,28.81,233.49,29.52,233.22Z"></path>
        <path d="M40.31,280.9l-12.38,2.65c-2.42.52-3.76-.76-3-2.84l7-18.84a8.73,8.73,0,0,1,5.81-4.73l12.37-2.66c2.42-.52,3.77.76,3,2.85l-7,18.83A8.73,8.73,0,0,1,40.31,280.9Z"></path>
        <path class="cls-12" d="M34,274h0a2.28,2.28,0,0,1-2.25,2.08l-3.94-.1A2,2,0,0,1,26,273.77h0a2.26,2.26,0,0,1,2.25-2.08l3.94.1A2,2,0,0,1,34,274Z"></path>
        <path class="cls-14" d="M9,246s-11,22.71-7.47,30.45S26,275.3,26,275.3V269H11.19l3-18.87Z"></path>
        <path class="cls-8" d="M224.73,227.44,111.68,198a5.76,5.76,0,0,1-4.06-5.31V109.54a3.1,3.1,0,0,1,4.06-3.19l113,29.41a5.73,5.73,0,0,1,4.05,5.3v83.18A3.1,3.1,0,0,1,224.73,227.44Z"></path>
        <ellipse class="cls-8" cx="119.18" cy="90.31" rx="9.14" ry="11.83" transform="translate(-30.33 87.61) rotate(-36.12)"></ellipse>
        <path class="cls-8" d="M178.36,102.15,133.54,90.49a2,2,0,0,1-1.41-1.83h0a1.07,1.07,0,0,1,1.41-1.1l44.82,11.66a2,2,0,0,1,1.4,1.83h0A1.07,1.07,0,0,1,178.36,102.15Z"></path>
        <path class="cls-8" d="M226.68,126.35l-93.14-24.23a2,2,0,0,1-1.41-1.84h0a1.07,1.07,0,0,1,1.41-1.1l93.14,24.23a2,2,0,0,1,1.4,1.84h0A1.07,1.07,0,0,1,226.68,126.35Z"></path>
        <path class="cls-8" d="M228.78,339.18,107.62,307.66V295.54c0-3.53,2.73-5.68,6.09-4.81l109,28.35a8.64,8.64,0,0,1,6.09,8Z"></path>
        <ellipse class="cls-8" cx="117.42" cy="254.9" rx="9.14" ry="11.83" transform="translate(-127.68 118.21) rotate(-36.12)"></ellipse>
        <path class="cls-8" d="M178.36,294l-44.82-11.66a2,2,0,0,1-1.41-1.83h0a1.07,1.07,0,0,1,1.41-1.1l44.82,11.66a2,2,0,0,1,1.4,1.83h0A1.07,1.07,0,0,1,178.36,294Z"></path>
        <path class="cls-8" d="M226.68,276.87l-93.14-24.23a2,2,0,0,1-1.41-1.83h0a1.08,1.08,0,0,1,1.41-1.11l93.14,24.24a2,2,0,0,1,1.4,1.83h0A1.07,1.07,0,0,1,226.68,276.87Z"></path>
        <path class="cls-8" d="M226.68,290.94l-93.14-24.23a2,2,0,0,1-1.41-1.83h0a1.08,1.08,0,0,1,1.41-1.11L226.68,288a2,2,0,0,1,1.4,1.83h0A1.07,1.07,0,0,1,226.68,290.94Z"></path>
        <path class="cls-20" d="M143.45,229.53l-2.46-.64a9.69,9.69,0,0,1-6.83-8.93h0c0-3.93,3.07-6.35,6.83-5.38l2.46.65a9.69,9.69,0,0,1,6.83,8.93h0C150.28,228.09,147.21,230.51,143.45,229.53Z"></path>
        <path class="cls-8" d="M136.68,222.27l-2.08,4.62a1.78,1.78,0,0,0,1.51,2.3l8.14.26Z"></path>
        <path class="cls-8" d="M226.45,243.23l-66.79-17.38a2.32,2.32,0,0,1-1.64-2.13h0a1.25,1.25,0,0,1,1.64-1.29l66.79,17.37a2.33,2.33,0,0,1,1.63,2.14h0A1.25,1.25,0,0,1,226.45,243.23Z"></path>
        <path class="cls-20" d="M171.84,236.73l-12.18-3.17a2.32,2.32,0,0,1-1.64-2.14h0a1.25,1.25,0,0,1,1.64-1.28l12.18,3.17a2.32,2.32,0,0,1,1.64,2.13h0A1.25,1.25,0,0,1,171.84,236.73Z"></path>
        <path class="cls-21" d="M111.68,198l16.15-25.17c3.64-5.67,12.59-3.83,16.87,3.47l16.59,28.32,19.48-26.42c5.61-7.61,18.4-3.93,23.55,6.78l20.41,42.43Z"></path>
        <ellipse class="cls-22" cx="136.17" cy="137.19" rx="8.2" ry="10.61" transform="translate(-54.69 106.63) rotate(-36.12)"></ellipse>
        <ellipse class="cls-23" cx="174.31" cy="189.46" rx="42.07" ry="55.7" transform="translate(-72.2 115.21) rotate(-30.62)"></ellipse>
        <ellipse class="cls-24" cx="166.24" cy="195.77" rx="42.07" ry="55.7" transform="translate(-76.54 111.98) rotate(-30.62)"></ellipse>
        <path class="cls-10" d="M282.86,244.81h0a2.71,2.71,0,0,1-1.24-2.45l2.48,1C284.1,244.41,283.54,245.08,282.86,244.81Z"></path>
        <path class="cls-12" d="M102,303.25h0a3,3,0,0,0,4-.87l1.15-1.77a3,3,0,0,0-.87-4.05h0a2.94,2.94,0,0,0-4,.86l-1.14,1.78A2.93,2.93,0,0,0,102,303.25Z"></path>
        <polygon class="cls-25" points="107.82 298.01 113.11 283.9 124.01 269.49 121.72 256.29 109.42 275.15 102.58 295.61 107.82 298.01"></polygon>
        <path class="cls-16" d="M148.49,365.8c-7-2.48-18.81-2.36-26.4.26-3.67,1.27-5.67,2.89-6,4.51-.32-.13-.66-.26-1-.38a23.34,23.34,0,0,0-13.27.32c-3.46,1.36-3.15,3.43.71,4.62a23.31,23.31,0,0,0,13.26-.32,5.29,5.29,0,0,0,1.93-1.17,12.6,12.6,0,0,0,3.3,1.67c7,2.48,18.81,2.36,26.4-.27S155.48,368.28,148.49,365.8Z"></path>
        <path class="cls-12" d="M110.39,360.55c-.3,3-4.24.28-4.28-2,4.58-15.68,9.55-28.42,15.48-33.74l.89-33.16,18.41-5.52-8.36,43.26Z"></path>
        <path class="cls-17" d="M140.73,366.73l4.42,1.46c3.39.06,5.15-.27,6,1l.25.37c.91,1.31.27,2-1.68,2.65l-8.8,2.15c-2.57.62-3.25-.22-3.92-1.77a5.75,5.75,0,0,1,1.3-4.31C139.33,367,139.26,366.85,140.73,366.73Z"></path>
        <path class="cls-12" d="M143.49,368.74c-.92,2.46-5.16,2-5.13,0-5-30.76-2-32.67-2.19-39.39-.26-7.52-1.85-15.6-7.43-29.76l4.81.69a15.84,15.84,0,0,1,13.6,15.28C147.64,334.69,147,349.86,143.49,368.74Z"></path>
        <path class="cls-26" d="M145,287.33l3.54,40.34s-14.07,12.48-31.88-2.43c3.75-5.57,4.11-12.58,3.45-20-1.68-7,0-12.77,1.92-17.84Z"></path>
        <ellipse class="cls-27" cx="132.05" cy="244.64" rx="5.2" ry="9.17" transform="translate(-74.52 58.59) rotate(-19.63)"></ellipse>
        <path class="cls-12" d="M142.07,246.23c-.29,4.38-4.38,6.83-7.56,4.7s-5.53-7.39-5.24-11.77,3.1-6.2,6.28-4.07S142.35,241.85,142.07,246.23Z"></path>
        <path class="cls-12" d="M132.63,260.5l-.47-.09a3,3,0,0,1-2.32-3.52l1.85-9a3,3,0,0,1,3.52-2.31l.48.09a3,3,0,0,1,2.31,3.52l-.5,9C137.17,259.7,134.23,260.83,132.63,260.5Z"></path>
        <path class="cls-28" d="M128.68,249.76s.11,3,5.16,2.16c4-.65,1.28-7.6,5.09-9.11,4.2-1.65,3.82-7.2,1.66-8.89s-7.19-1.72-10.33.56S120.08,239.47,128.68,249.76Z"></path>
        <circle class="cls-12" cx="137.51" cy="244.92" r="1.93"></circle>
        <path class="cls-25" d="M122,287.38c-.12-7.09.09-8.6-1.27-16.64-.46-2.7-.27-3.5-.59-6.22-.56-4.78,1.42-13.51,9.35-11.38l.72.49a16.28,16.28,0,0,1,3.38,1.23c11.62,5.75,14.84,4.38,13.18,11.73-.4,5.49-3.71,9.13-1.8,20.74C142.71,295.19,124.7,292.93,122,287.38Z"></path>
        <path class="cls-12" d="M138,251.59l-.68-.93a2.93,2.93,0,0,0,2.45.1A3.78,3.78,0,0,1,138,251.59Z"></path>
        <path class="cls-29" d="M130.05,252.56a1.37,1.37,0,0,0-1.61,1.63,3.8,3.8,0,0,0,2.91,2.93,13.52,13.52,0,0,0,7.13-.18.39.39,0,0,0,.09-.71C136.92,255.29,133,253.15,130.05,252.56Z"></path>
        <path class="cls-17" d="M110.37,360.81l-.92,4.6c.35,3.4.89,5.12-.31,6.18l-.33.3c-1.2,1.06-2.49.45-2.86-1.36l-3-8.21a4,4,0,0,1,2.07-4.26s1.28-.77,3.47.57C110,359.51,110.07,359.37,110.37,360.81Z"></path>
        <path class="cls-12" d="M141,370.41l5.62-.42a.66.66,0,0,0,.21-1.26l-3.56-2Z"></path>
        <path class="cls-12" d="M107.17,358s1.53,6.57,2.28,7.42l1.28-5.67-1-3.29Z"></path>
        <path class="cls-30" d="M148.49,327.67,145,287.33l-5.14,3.14s4.87,35.75,1.71,40.95A19.23,19.23,0,0,0,148.49,327.67Z"></path>
        <path class="cls-12" d="M173.5,227.4h0a2.94,2.94,0,0,0-4.11-.46l-1.65,1.32a2.94,2.94,0,0,0-.46,4.12h0a2.94,2.94,0,0,0,4.11.46l1.65-1.32A2.94,2.94,0,0,0,173.5,227.4Z"></path>
        <path class="cls-29" d="M145,287.33s-.72-7.07.2-9.16S147.29,264,147.29,264l-1.67-.68c-2.37,4.32-5.65,5.92-5.83,28.45C139.79,291.78,144.42,290.65,145,287.33Z"></path>
        <path class="cls-25" d="M140.17,259.13l15.33-12.38a7.66,7.66,0,0,0,1.66-1.88l8.93-14.35,5.18,3.69L162.93,251a7.85,7.85,0,0,1-1.24,1.79L146.57,269h-6.76Z"></path>
        <path class="cls-28" d="M126.84,236.91s-5.37,2.88-3.6,15.55c2,14.43-6.63,17-5.89,25.84.93,11,17.63-.15,14.7-8.62-1.07-3.11-2.29-7.51-.91-11.19,1.25-3.35,6.37-6.78,5.44-11.56,0,0-6.36-6.08-6.36-6.26S126.84,236.91,126.84,236.91Z"></path>
        <path class="cls-10" d="M147.21,210.61l5.08-3.54a.66.66,0,0,1,1,.71,6.18,6.18,0,0,1-1.9,3.29c-1.77,1.37-3.27,1.26-4.19.64A.67.67,0,0,1,147.21,210.61Z"></path>
        <path class="cls-31" d="M176.49,179.1,187.33,185c1,.56,2.12,1.61,2.85.63l.32-.61c.72-1,.49-3-.53-3.59l-10.84-5.92a2.57,2.57,0,0,0-3.18.77h0A1.85,1.85,0,0,0,176.49,179.1Z"></path>
        <path class="cls-32" d="M155.33,218.49l34.1-20.93c1.58-1,1.4-2.56-.41-3.53l-11.06-6a6.81,6.81,0,0,0-6.14,0L137.73,209c-1.58,1-1.4,2.56.4,3.53l11.06,6A6.81,6.81,0,0,0,155.33,218.49Z"></path>
        <polygon class="cls-31" points="188.57 182.15 190.37 184.15 185.83 181.71 188.57 182.15"></polygon>
        <path class="cls-31" d="M145.25,192.13a3.24,3.24,0,0,1,0-1.07c.26-1,1.87-2.17,2.54-.42a8.39,8.39,0,0,1,.45,1.68c.14.94,0,1.74-.42,2.06S145.51,193.86,145.25,192.13Z"></path>
        <path class="cls-31" d="M183.73,187.23l-6.51-3.3c-1.4-.71-1.21-2.1.43-3.1h0a6.43,6.43,0,0,1,5.52-.52l6.51,3.29c1.4.71,1.21,2.11-.42,3.1h0A6.42,6.42,0,0,1,183.73,187.23Z"></path>
        <path class="cls-33" d="M189.88,188.83l-2.23.29v.94l-10-5.21-7.88,2.22.08,3.4a1.56,1.56,0,0,0,.88,1.45L151,199.32c1.79.94,8.7,12,10.51,10.92L188,194.39a3.22,3.22,0,0,0,1.76-2.49Z"></path>
        <path class="cls-33" d="M145.21,214.48l-5.71-3.1a3,3,0,0,1-1.87-3.33l-.11-.8,7.85-3.37,14.15,7.39-4.89,2.9A10.63,10.63,0,0,1,145.21,214.48Z"></path>
        <path class="cls-34" d="M146.23,212.76l-7.86-4.25a1.58,1.58,0,0,1,0-2.84l6.9-4.09L159.43,209l-6.11,3.62A8.72,8.72,0,0,1,146.23,212.76Z"></path>
        <path class="cls-33" d="M165.32,207.6c0-.21-2.31-8.92-7.26-4.87-2.16,1.78-6,9.58-4.05,10.7S165.32,207.6,165.32,207.6Z"></path>
        <path class="cls-33" d="M159.17,209.42h0c.61-.35,1.09-.09,1.08.59a2.47,2.47,0,0,1-1.11,1.86l0,0c-.61.35-1.1.09-1.08-.59A2.49,2.49,0,0,1,159.17,209.42Z"></path>
        <path class="cls-35" d="M159.22,208.13c1.25-.72,2.23-.18,2.2,1.2a5.06,5.06,0,0,1-2.27,3.8l0,0c-1.25.72-2.23.18-2.2-1.21a5.08,5.08,0,0,1,2.26-3.79Zm-.06,3.73a2.47,2.47,0,0,0,1.11-1.86c0-.68-.47-.94-1.08-.59h0a2.49,2.49,0,0,0-1.11,1.87c0,.68.47.94,1.08.59l0,0"></path>
        <path class="cls-33" d="M159.26,206.34c2.07-1.2,3.72-.3,3.67,2a1,1,0,0,0,0,.17,6.39,6.39,0,0,1-.39,1.82,8.68,8.68,0,0,1-3.38,4.34l-.08,0c-1.44.83-2.67.66-3.28-.31a2.79,2.79,0,0,1-.38-1.35c0-.11,0-.23,0-.35a8.47,8.47,0,0,1,3.78-6.33Zm-.11,6.79a5.06,5.06,0,0,0,2.27-3.8c0-1.38-.95-1.92-2.2-1.2l-.05,0a5.08,5.08,0,0,0-2.26,3.79c0,1.39,1,1.93,2.2,1.21l0,0"></path>
        <path class="cls-33" d="M183.19,195.17h0c.61-.36,1.1-.09,1.08.59a2.47,2.47,0,0,1-1.11,1.86h0c-.61.36-1.09.09-1.08-.59A2.5,2.5,0,0,1,183.19,195.17Z"></path>
        <path class="cls-35" d="M183.24,193.88c1.25-.73,2.23-.19,2.2,1.2a5.1,5.1,0,0,1-2.26,3.8l-.05,0c-1.24.72-2.23.18-2.2-1.21a5.06,5.06,0,0,1,2.26-3.79Zm-.06,3.73a2.47,2.47,0,0,0,1.11-1.86c0-.68-.47-.95-1.08-.59h0a2.5,2.5,0,0,0-1.11,1.86c0,.68.47.95,1.08.59h0"></path>
        <path class="cls-33" d="M183.28,192.09c2.08-1.21,3.72-.31,3.67,2a.86.86,0,0,1,0,.16,6.53,6.53,0,0,1-.39,1.83,8.62,8.62,0,0,1-3.38,4.34l-.08,0c-1.44.84-2.67.66-3.27-.3a2.83,2.83,0,0,1-.39-1.35,2.16,2.16,0,0,1,0-.36,8.44,8.44,0,0,1,3.77-6.33Zm-.1,6.79a5.1,5.1,0,0,0,2.26-3.8c0-1.39-.95-1.93-2.2-1.2l-.05,0a5.06,5.06,0,0,0-2.26,3.79c0,1.39,1,1.93,2.2,1.21l.05,0"></path>
        <path class="cls-31" d="M151.38,205.62c.39-.62,6.6-5.53,7.21-6.18s7-9.44,7-9.44l7.78-4.87v0s6.2-4.66,12.57-3.9c1.08.12,2.22.59,2.21,1.65l-.07,8.18-1.86,1c-1.24-1.87-5.72.29-6.52,4.2l-7.37,4.65-9.58,5.9c-.07-.72-1.42-1.76-3.62-.69a7.34,7.34,0,0,0-3.75,5.42l-1.89,1a9.11,9.11,0,0,1-3.2.87s0-4.58,0-4.58A4.82,4.82,0,0,1,151.38,205.62Z"></path>
        <path class="cls-34" d="M146.23,194.53c-.62.62-1.52,1.27-2.14,1.81-1.27,1.09-2.22,1.83-3.32,2.95-.23.23-.47.49-.72.76-.09.09-.17.19-.26.29a13.15,13.15,0,0,0-1.79,2.89l-.12.34-.12.37c0,.14-.07.29-.11.43s-.07.37-.09.54c-.05.32-.08,2-.07,2.28l12.28,3.94,1-3.27c.08-.09.18-1.5.27-1.59.25-.28.06.29.29.06,1.11-1.12,2.45-2.52,3.72-3.62.62-.54,1.48-1.26,2.27-1.9Z"></path>
        <path class="cls-31" d="M187.62,187l0,4.27,1.35-.74a2.56,2.56,0,0,0,1.06-1.1h0a2.43,2.43,0,0,0,.25-1.23l-.16-2.61Z"></path>
        <path class="cls-33" d="M161.67,201.11,172,194.46l.93-7.13s-6,3.44-8.2,6.23a43.19,43.19,0,0,0-3.68,6.38C160.66,200.72,161.15,201.45,161.67,201.11Z"></path>
        <path class="cls-34" d="M163.59,199.33a3,3,0,0,1,1,.39c.8.57,1.23,2.47-.67,2.49a8.15,8.15,0,0,1-1.75-.15c-.93-.19-1.63-.55-1.74-1.08C160.27,200.27,161.88,199,163.59,199.33Z"></path>
        <path class="cls-33" d="M186.3,186.2s-4.1-3.22-7.75-1.85a46.45,46.45,0,0,0-4.5,2.49l-.79,6.87Z"></path>
        <path class="cls-10" d="M189.72,186.77h0c.56-.17,1-.64,1-1.06l0-.58c0-.41-.51-.62-1.06-.45h0c-.55.17-1,.64-1,1.06l0,.58C188.69,186.73,189.17,186.94,189.72,186.77Z"></path>
        <polygon class="cls-10" points="139.21 209.95 145.19 213.2 145.04 210.65 139.06 207.4 139.21 209.95"></polygon>
        <polygon class="cls-33" points="156.39 215.01 154.32 213.94 156.02 212.13 156.39 215.01"></polygon>
        <polygon class="cls-33" points="180.42 200.78 178.5 199.77 180.05 197.9 180.42 200.78"></polygon>
        <path class="cls-34" d="M176.65,175.25c3,1.18,8.06,4.37,11.54,6.65a27.22,27.22,0,0,0-7.47.25c-2.39.6-13.74,7.8-15.78,10a22.52,22.52,0,0,0-1.62,1.88c-1.44,1.92-4.89,6.81-4.89,6.81s-4.68,3-6.12,4.55a12.13,12.13,0,0,0-1.32,1.73,7.5,7.5,0,0,0-1.22,4l-11-6.22a7.5,7.5,0,0,1,1.22-4,12.72,12.72,0,0,1,1.32-1.73,60.63,60.63,0,0,1,4.95-4.6c.4-.34,3.55-4.76,5.87-8,.41-.59.87-1.15,1.34-1.7,2.38-2.73,10.92-7.53,14.43-9.3a6.12,6.12,0,0,1,2.83-.65A57.44,57.44,0,0,1,176.65,175.25Z"></path>
        <path class="cls-33" d="M147.09,194.29l6-8.39c2.88,1.85,6.72,3.68,11,5.95l-6.17,8.65C153.22,199.09,149.58,197.06,147.09,194.29Z"></path>
        <path class="cls-33" d="M181.88,181.12a94.24,94.24,0,0,0-10.32-5.61l5.15.17a32.74,32.74,0,0,1,8.87,5.37Z"></path>
        <polygon class="cls-36" points="160.66 190.08 148.94 191.71 153.02 185.98 160.66 190.08"></polygon>
        <path class="cls-10" d="M138.51,204.31a.6.6,0,0,0,.82-.52l.2-3.21a14.57,14.57,0,0,0-1.5,2.54.89.89,0,0,0,.48,1.19Z"></path>
        <path class="cls-10" d="M147.94,208.71l4.94-2.41a.57.57,0,0,1,.76.76,5.78,5.78,0,0,1-2.19,2.6c-1.75,1-3,.66-3.69,0A.6.6,0,0,1,147.94,208.71Z"></path>
        <ellipse class="cls-5" cx="134.89" cy="149.04" rx="14.28" ry="17.56" transform="translate(-63.87 119.01) rotate(-39.26)"></ellipse>
        <polyline class="cls-37" points="127.52 147.2 133.51 156.12 141.76 143.49"></polyline>
      </g>
    </g>
  </g>
</svg>
