<?xml version="1.0" encoding="UTF-8"?>
<svg xmlns="http://www.w3.org/2000/svg" viewBox="0 0 516.46 447.75">
  <defs>
    <style>.cls-1{isolation:isolate;}.cls-2{fill:#d6e8ff;}.cls-3{fill:#004780;}.cls-4{fill:#0a2b52;}.cls-5{fill:#1a77d3;}.cls-6{fill:#4a96ff;}.cls-7{fill:#0d3b6e;}.cls-8{fill:#fff;}.cls-9{fill:#b7cde5;}.cls-10{fill:#006fff;}.cls-11{fill:#004f9a;}.cls-12{fill:#005cb6;}.cls-13,.cls-21{fill:none;stroke-linecap:round;stroke-linejoin:round;}.cls-13{stroke:#b7cde5;stroke-width:5.33px;}.cls-14{fill:#3457ad;opacity:0.19;mix-blend-mode:multiply;}.cls-15{fill:#0e53db;}.cls-16{fill:#ea7f17;}.cls-17{fill:#0e2e80;}.cls-18{fill:#f0b52d;}.cls-19{fill:#173886;}.cls-20{fill:#d5d5d5;}.cls-21{stroke:#2a417d;stroke-width:2px;}.cls-22{fill:#d0a6a4;}.cls-23{fill:#ffc4c0;}.cls-24{fill:#ff8066;}.cls-25{fill:#eab755;}.cls-26{fill:#513e6b;}.cls-27{fill:#d6a28a;}.cls-28{fill:#ffb7a5;}.cls-29{fill:#af4141;}.cls-30{fill:#eacbc3;}.cls-31{fill:#b48780;}.cls-32{fill:#c39349;}.cls-33{fill:#27427a;}.cls-34{fill:#efefef;}.cls-35{fill:#60809c;}.cls-36{fill:#e25353;}</style>
  </defs>
  <g class="cls-1">
    <g id="Layer_2" data-name="Layer 2">
      <g id="Layer_1-2" data-name="Layer 1">
        <path class="cls-2" d="M187.86,107.18a262.3,262.3,0,0,0-11.19-29.55c-8-17.37-12.64-46.06,26.26-68,59.8-33.73,42.79,33.66,98.2,12.31S415.93-.23,423.83,49.17s8.6,73.42,38,81.92c59.91,17.34,84.43,109.92.93,149.88S359.2,266,323.05,267.63s-20.91-127.31-81.83-130.32C204.09,135.48,191.8,119.44,187.86,107.18Z"></path>
        <path class="cls-2" d="M371.79,254.34a43.05,43.05,0,0,0-42.52-1.19L224.18,309.83l-29.82,15.95c-19.43,10.39-20.81,37.66-2.56,50.79h0c24.5,17.64,56.66,20.06,82.83,6.22l35.68-18.86,83.95-49c18-10.49,17.69-36.57-.53-47.49Z"></path>
        <path class="cls-3" d="M283.44,112.36h33.14a0,0,0,0,1,0,0V326.28a12.25,12.25,0,0,1-12.25,12.25h-8.64a12.25,12.25,0,0,1-12.25-12.25V112.36a0,0,0,0,1,0,0Z"></path>
        <polygon class="cls-4" points="282.65 242.7 283.44 112.36 316.58 112.36 316.58 242.7 282.65 242.7"></polygon>
        <path class="cls-5" d="M260.73,143.84l-90.87,48.73,99.79,57.61v-70.6A76.05,76.05,0,0,0,260.73,143.84Z"></path>
        <path class="cls-3" d="M169.86,192.57l-31.61,18.69c-23.52,13.9-23.63,47.89-.2,61.95h0a89.61,89.61,0,0,0,91.35.51l40.25-23.54V243.9Z"></path>
        <path class="cls-6" d="M170.58,192.57,138.24,209.2c-23.52,13.91-23.62,43.67-.19,57.73h0a89.61,89.61,0,0,0,91.35.51l40.25-23.54Z"></path>
        <ellipse class="cls-7" cx="325.44" cy="185.85" rx="12.78" ry="8.14" transform="translate(-0.09 371.54) rotate(-59.43)"></ellipse>
        <ellipse class="cls-8" cx="329.96" cy="187.63" rx="12.78" ry="8.14" transform="translate(0.6 376.31) rotate(-59.43)"></ellipse>
        <polygon class="cls-9" points="250.1 426.86 324.32 384 278.43 357.51 232.21 429.46 250.1 426.86"></polygon>
        <polygon class="cls-10" points="232.21 426.86 306.43 384 260.54 357.51 186.32 400.36 232.21 426.86"></polygon>
        <polygon class="cls-11" points="186.32 400.36 186.32 402.53 232.21 429.46 232.21 426.86 186.32 400.36"></polygon>
        <polygon class="cls-11" points="306.43 386.66 232.21 429.46 232.21 426.86 306.43 384 306.43 386.66"></polygon>
        <polygon class="cls-10" points="232.21 420.99 306.43 378.14 260.54 351.64 186.32 394.5 232.21 420.99"></polygon>
        <polygon class="cls-11" points="186.32 394.5 186.32 396.67 232.21 423.59 232.21 420.99 186.32 394.5"></polygon>
        <polygon class="cls-11" points="306.43 380.8 232.21 423.59 232.21 420.99 306.43 378.14 306.43 380.8"></polygon>
        <polygon class="cls-10" points="232.21 414.81 306.43 371.95 260.54 345.46 186.32 388.31 232.21 414.81"></polygon>
        <polygon class="cls-11" points="186.32 388.31 186.32 390.49 232.21 417.41 232.21 414.81 186.32 388.31"></polygon>
        <polygon class="cls-11" points="306.43 374.61 232.21 417.41 232.21 414.81 306.43 371.95 306.43 374.61"></polygon>
        <polygon class="cls-12" points="232.21 414.81 241.82 375.48 255.62 367.52 306.43 371.95 232.21 414.81"></polygon>
        <polygon class="cls-10" points="186.32 388.31 259.41 381.87 260.54 345.46 186.32 388.31"></polygon>
        <polygon class="cls-12" points="186.85 388.31 251.35 388.89 239.84 383.6 186.85 388.31"></polygon>
        <path class="cls-13" d="M170.58,192.57V143.06c0-29.62,32.07-48.14,57.72-33.33l4,2.34a76.06,76.06,0,0,1,38,65.86v70.61"></path>
        <path class="cls-14" d="M209.72,203.65,295,154c2.46-1.43,36.59-8.66,39.09-7.22l51,25.65c5,6.59-9.37,12-14.67,15l-113.6,65.49c-4.28,2.47-19,11.21-24,10.78,0,0-31.41,11.56-55-.54S188.63,215.93,209.72,203.65Z"></path>
        <path class="cls-10" d="M351,45.05l-4.05-2.33c-13.55-7.4-28.73-5.22-42.71,2.82h0l-111.43,64,76.87,140.67,113.49-65.3A11.66,11.66,0,0,0,389,174.77V110.91A76,76,0,0,0,351,45.05Z"></path>
        <path class="cls-3" d="M269.65,250.18l-99.79-57.61V144.71c0-29.62,32.07-48.14,57.72-33.33l4,2.34a76,76,0,0,1,38,65.86Z"></path>
        <polygon class="cls-15" points="324.91 138.17 334.35 151.98 321.65 146.03 324.91 138.17"></polygon>
        <path class="cls-16" d="M176,178.71a10.71,10.71,0,0,1-2.63-2.62c-1.86-3-.81-9.75,5.31-7.17a29.54,29.54,0,0,1,5.38,2.91c2.74,1.9,4.53,4.06,4.19,5.95C187.82,180.28,181.07,182.23,176,178.71Z"></path>
        <path class="cls-15" d="M311.23,161.43l-22.84-12.7c-4.93-2.74-4.31-7.57,1.38-10.74h0c5.69-3.16,14.37-3.51,19.3-.77l22.84,12.71c4.93,2.74,4.3,7.57-1.38,10.73h0C324.84,163.82,316.15,164.17,311.23,161.43Z"></path>
        <path class="cls-16" d="M320.1,135.43C297.78,131.59,275,152,275,152l-8.2,57.65,27.06-14.9c.23-10.11,6.8-19.83,15.09-24.51,7.88-4.26,14.24-2.65,14.59,6.86l3.07-1.75V142.91A7.7,7.7,0,0,0,320.1,135.43Z"></path>
        <path class="cls-17" d="M334.35,167l-9.36.86v3.28l-35-19.47-27.47,6.69.37,11.85a5.9,5.9,0,0,0,3.12,5.2l-69,23.18c6.3,3.5,30.76,42.93,37.06,39.42l92.4-51.71a13.85,13.85,0,0,0,7.14-8.5Z"></path>
        <path class="cls-17" d="M183.77,254.18l-30.13-16.75a5.91,5.91,0,0,1-3.11-5.2l-.25-7.83,27.35-10.71,49.65,27.62-23.14,12.87A21,21,0,0,1,183.77,254.18Z"></path>
        <path class="cls-18" d="M183.39,246.15l-30.12-16.76a5.89,5.89,0,0,1,0-10.39l24-13.34,49.66,27.61-23.15,12.88A21.07,21.07,0,0,1,183.39,246.15Z"></path>
        <path class="cls-17" d="M247.48,229.28c0-.73-8.36-31.38-25.53-17.91-7.5,5.89-20.63,32.58-13.85,36.76S247.48,229.28,247.48,229.28Z"></path>
        <path class="cls-19" d="M226,234.83l.08,0c2.12-1.15,3.81-.16,3.78,2.21a8.2,8.2,0,0,1-3.83,6.34l-.07,0c-2.12,1.15-3.82.17-3.79-2.2A8.22,8.22,0,0,1,226,234.83Z"></path>
        <path class="cls-20" d="M226.15,230.33c4.34-2.35,7.8-.35,7.74,4.49s-3.55,10.53-7.82,12.94l-.15.08c-4.33,2.35-7.8.35-7.73-4.49s3.54-10.52,7.8-12.92Zm-.1,13a8.2,8.2,0,0,0,3.83-6.34c0-2.37-1.66-3.36-3.78-2.21l-.08,0a8.22,8.22,0,0,0-3.83,6.35c0,2.37,1.67,3.35,3.79,2.2l.07,0"></path>
        <path class="cls-19" d="M226.23,224.1c7.23-3.92,13-.57,12.89,7.49,0,.19,0,.38,0,.57a21.81,21.81,0,0,1-1.31,6.33c-2.12,6-6.56,11.77-11.69,14.66l-.27.15c-5,2.73-9.33,1.95-11.46-1.48A10.17,10.17,0,0,1,213,247a12.19,12.19,0,0,1,0-1.22c.1-8,5.91-17.55,13-21.57Zm-.16,23.66c4.27-2.41,7.75-8.17,7.82-12.94s-3.4-6.84-7.74-4.49l-.16.1c-4.26,2.4-7.74,8.15-7.8,12.92s3.4,6.84,7.73,4.49l.15-.08"></path>
        <path class="cls-19" d="M309.58,188.32l.08,0c2.12-1.15,3.81-.16,3.78,2.21a8.2,8.2,0,0,1-3.83,6.34l-.07,0c-2.12,1.15-3.82.17-3.79-2.2A8.22,8.22,0,0,1,309.58,188.32Z"></path>
        <path class="cls-20" d="M309.71,183.82c4.34-2.35,7.8-.35,7.74,4.49s-3.55,10.53-7.82,12.94l-.15.08c-4.33,2.35-7.8.35-7.73-4.49s3.54-10.52,7.8-12.92Zm-.1,13a8.2,8.2,0,0,0,3.83-6.34c0-2.37-1.66-3.36-3.78-2.21l-.08,0a8.22,8.22,0,0,0-3.83,6.35c0,2.37,1.67,3.35,3.79,2.2l.07,0"></path>
        <path class="cls-19" d="M309.79,177.59c7.23-3.92,13-.57,12.89,7.49,0,.19,0,.38,0,.57a21.81,21.81,0,0,1-1.31,6.33c-2.12,6-6.56,11.77-11.69,14.66l-.27.15c-5,2.73-9.33,2-11.46-1.48a10.17,10.17,0,0,1-1.39-4.78,12.19,12.19,0,0,1,0-1.22c.1-8,5.91-17.55,13-21.57Zm-.16,23.66c4.27-2.41,7.75-8.17,7.82-12.94s-3.4-6.84-7.74-4.49l-.16.1c-4.26,2.4-7.74,8.15-7.8,12.92s3.4,6.84,7.73,4.49l.15-.08"></path>
        <path class="cls-16" d="M275,152,248,168s-21.69,29.38-24.27,32c-2.13,2.16-23.67,18.48-25,20.6-2.84,4.42-3.6,6.65-3.46,11,0,0,.26,16.92.28,17.07,5.59-.46,8.7-2.78,10.87-3.73l3.72-2.15c.22-10.11,6.79-19.83,15.08-24.51,7.88-4.26,14.24-2.65,14.6,6.86l33.72-19.22Z"></path>
        <path class="cls-18" d="M287.49,119.13,322,136c-12.16-.53-25,3.08-35.4,9.19l-26.92,15.87a66.48,66.48,0,0,0-19.63,17.67c-2.91,3.94-6,8-7.93,10.5-2.4,3-10.93,14.65-10.93,14.65s-14.31,10.51-19.3,15.82a41.49,41.49,0,0,0-4.56,5.86,25.43,25.43,0,0,0-4.17,14L154.45,216.4a25.4,25.4,0,0,1,4.17-14,41.49,41.49,0,0,1,4.56-5.86c5-5.31,11.83-10.94,17.17-15.37,1.38-1.15,12.28-16.12,20.27-27.21a66.25,66.25,0,0,1,21.57-19.18l27.94-15.55,1-.48A41.75,41.75,0,0,1,287.49,119.13Z"></path>
        <path class="cls-18" d="M180.35,181.22c-2.14,2.09-5.28,4.22-7.42,6-4.41,3.66-7.7,6.12-11.53,9.86-.8.79-1.63,1.64-2.5,2.56-.3.32-.59.64-.88,1,0,0-5.07,6.2-6.18,9.83-.15.39-.29.78-.42,1.16s-.28.86-.4,1.29-.26,1-.36,1.49c-.14.64-.24,1.26-.32,1.88-.15,1.1-.21,6.89-.18,7.91l43,15.35,3.56-11.23c.29-.33.59-5.21.89-5.53.87-.92.23,1,1,.25,3.83-3.75,8.48-8.46,12.88-12.11,2.15-1.79,5.14-4.2,7.89-6.32Z"></path>
        <path class="cls-8" d="M154.85,213.47a2,2,0,0,0,2.9-1.61l1-11.14a48,48,0,0,0-5.46,8.48,3.25,3.25,0,0,0,1.57,4.27Z"></path>
        <path class="cls-8" d="M187.84,229.31l15.48-10.8a2,2,0,0,1,3.13,2.18c-.87,3.31-2.56,7.5-5.8,10-5.41,4.2-10,3.84-12.78,1.95A2,2,0,0,1,187.84,229.31Z"></path>
        <polygon class="cls-19" points="212.43 193.94 186.51 178.18 205.56 151.98 231.47 167.74 212.43 193.94"></polygon>
        <polygon class="cls-19" points="220.34 198.79 194.42 183.03 213.46 156.82 239.38 172.58 220.34 198.79"></polygon>
        <path class="cls-15" d="M326.65,160.53v14.85l4.72-2.31a8.13,8.13,0,0,0,3.68-3.65h0a8.09,8.09,0,0,0,.84-4.24l-.66-9.13Z"></path>
        <path class="cls-19" d="M236.07,205.37l34.4-20.93,2.92-23.71s-21.14,7-38.38,40.3C233.71,203.55,234.32,206.42,236.07,205.37Z"></path>
        <path class="cls-18" d="M244.34,201.07a11.06,11.06,0,0,1,2.92,2.34c2.17,2.77,1.88,9.61-4.49,7.68a30.4,30.4,0,0,1-5.68-2.34c-2.93-1.61-5-3.57-4.82-5.48C232.43,200.73,238.93,198.1,244.34,201.07Z"></path>
        <path class="cls-19" d="M281.57,179.47l16.8-9.85c4-2.36,7.88-8.65,10.13-14,.05-.13.11-.25.16-.38,2.1-5.17.5-10.4-3.2-9.71-4.23.77-21,10.06-21.87,10.55l-.31.17a8.51,8.51,0,0,0-3.67,5.94l-1.74,14.22C277.51,179.35,279.27,180.81,281.57,179.47Z"></path>
        <path class="cls-8" d="M335.21,154.83v-.12c.13-1.43-.54-2.39-1.64-2.26a4.61,4.61,0,0,0-1.67.61,19.62,19.62,0,0,0-4,3.29c-1.41,1.44-1.89,3.74-.94,4.6a1.26,1.26,0,0,0,1.51,0l4.16-2.21.06,0A5.53,5.53,0,0,0,335.21,154.83Z"></path>
        <line class="cls-21" x1="155.23" y1="217.17" x2="183.84" y2="232.49"></line>
        <path class="cls-10" d="M209.26,106.18s63.12,6.18,60.39,117.78c17.85,14.13,112.24-52.19,112.24-52.19s-17.42-80.36-13.41-84.93C314.42,59.54,235,94.05,235,94.05Z"></path>
        <polygon class="cls-22" points="314.88 103 344.63 88.06 344.63 109.66 314.88 126.61 314.88 103"></polygon>
        <rect class="cls-7" x="314.88" y="94.88" width="7.34" height="106.56" rx="2.71"></rect>
        <path class="cls-23" d="M314.88,104.21l.08.05a14.62,14.62,0,0,0,14.77.42l20.09-11-.21,23L329.67,128a14.61,14.61,0,0,1-14.79-.19h0Z"></path>
        <rect class="cls-24" x="12.66" y="247.99" width="5.4" height="7.35" rx="2.35" transform="translate(-170.01 80.75) rotate(-43.83)"></rect>
        <path class="cls-25" d="M26.19,293.29s6.1,6.19.68-14.72c-1.1-4.23-7.87-26.9-7.87-26.9l-4.53,3.1s4.25,20.61,5.2,25.3c1.36,6.76.07,14.16,1.5,16.1S26.19,293.29,26.19,293.29Z"></path>
        <path class="cls-2" d="M45.4,391.9c-6.41-2.39-17.32-2.47-24.36-.17-3.41,1.12-5.28,2.58-5.59,4.07-.29-.13-.6-.25-.95-.37a21.58,21.58,0,0,0-12.24.09c-3.22,1.2-3,3.12.57,4.28a21.58,21.58,0,0,0,12.24-.09,5,5,0,0,0,1.81-1,11.35,11.35,0,0,0,3,1.59c6.41,2.39,17.31,2.47,24.36.17S51.81,394.3,45.4,391.9Z"></path>
        <path class="cls-24" d="M10.32,386.47c-.32,2.79-3.91.19-3.91-1.94,4.47-14.4,9.26-26.08,14.81-30.89l1.35-30.59,17.06-4.81L31.24,358Z"></path>
        <path class="cls-26" d="M38.22,392.65l4.06,1.41c3.13.11,4.75-.17,5.56,1.05l.23.34c.82,1.22.22,1.86-1.59,2.42l-8.16,1.85c-2.38.53-3-.26-3.58-1.7a5.3,5.3,0,0,1,1.26-4C36.93,392.83,36.87,392.73,38.22,392.65Z"></path>
        <path class="cls-24" d="M40.74,394.54c-.89,2.26-4.8,1.76-4.73-.09C31.89,366,34.7,364.28,34.6,358.07c-.12-6.94-1.46-14.42-6.38-27.57l4.42.7A14.62,14.62,0,0,1,45,345.52C45.11,363.19,44.25,377.18,40.74,394.54Z"></path>
        <path class="cls-27" d="M43.36,319.45,46,356.72S32.82,368,16.62,354c3.54-5.07,4-11.54,3.5-18.42-1.45-6.46.19-11.78,2.05-16.42Z"></path>
        <ellipse class="cls-28" cx="32.13" cy="279.85" rx="4.79" ry="8.46" transform="translate(-87.85 24.99) rotate(-18.66)"></ellipse>
        <path class="cls-24" d="M41.35,281.48c-.34,4-4.15,6.23-7.05,4.22s-5-6.91-4.65-10.94,3-5.68,5.85-3.67S41.68,277.45,41.35,281.48Z"></path>
        <path class="cls-24" d="M32.41,294.5l-.43-.1a2.75,2.75,0,0,1-2.09-3.28l1.86-8.31A2.75,2.75,0,0,1,35,280.72l.44.1a2.75,2.75,0,0,1,2.08,3.28l-.61,8.25C36.61,293.83,33.89,294.83,32.41,294.5Z"></path>
        <path class="cls-26" d="M28.94,284.53s0,2.73,4.72,2.07c3.74-.54,1.3-7,4.85-8.32,3.89-1.46,3.63-6.59,1.66-8.18s-6.6-1.71-9.53.35S21.17,274.89,28.94,284.53Z"></path>
        <path class="cls-24" d="M38.94,280.34a1.79,1.79,0,1,1-1.63-1.92A1.8,1.8,0,0,1,38.94,280.34Z"></path>
        <path class="cls-25" d="M22.17,319.14c0-6.55.21-7.94-.92-15.38a53,53,0,0,1-.58-7.54c-.05-11.23,0-10.8,7.33-8.71l2.27.61a15.15,15.15,0,0,1,3.1,1.19c10.64,5.48,14.65,6.13,13,12.88-.45,5.06-4.59,6.51-3,17.26C41.17,326.66,24.59,324.3,22.17,319.14Z"></path>
        <path class="cls-29" d="M37.5,286.36l-.61-.87a2.68,2.68,0,0,0,2.25.13A3.38,3.38,0,0,1,37.5,286.36Z"></path>
        <path class="cls-30" d="M30.2,287.07a1.27,1.27,0,0,0-1.54,1.45,3.52,3.52,0,0,0,2.59,2.8,12.47,12.47,0,0,0,6.58.07.36.36,0,0,0,.1-.66A32.27,32.27,0,0,0,30.2,287.07Z"></path>
        <path class="cls-25" d="M44.88,307.25s1.81-5.71,12.16-19.51c4.38-5.84,14.17-19.09,14.17-19.09l-4.73-3.6s-10.19,13.53-14,17c-2.15,2-8,7.79-8,7.79-5.48,1.72-9.42,2-9.75,3.33C34.24,295.54,44.88,307.25,44.88,307.25Z"></path>
        <path class="cls-26" d="M10.3,386.71l-.92,4.23c.27,3.14.75,4.73-.38,5.69l-.31.27c-1.13,1-2.3.38-2.61-1.3L3.45,388a3.66,3.66,0,0,1,2-3.89s1.19-.7,3.19.57C9.93,385.5,10.05,385.37,10.3,386.71Z"></path>
        <path class="cls-26" d="M28.88,274.9s-4-5-7.66,1.19-1.6,13.53-6.75,17.11c0,0,9,.12,10-5.59s.47-10.52,3.7-10.68S28.88,274.9,28.88,274.9Z"></path>
        <path class="cls-24" d="M38.41,396l5.19-.3a.61.61,0,0,0,.22-1.16l-3.25-1.93Z"></path>
        <path class="cls-24" d="M7.4,384.05s1.31,6.09,2,6.89l1.27-5.21-.9-3.06Z"></path>
        <path class="cls-31" d="M46,356.72l-2.64-37.27-4.79,2.81s3.93,33.07.93,37.81A17.79,17.79,0,0,0,46,356.72Z"></path>
        <path class="cls-24" d="M67.1,265.12h0a2.54,2.54,0,0,0,2.63,2.44l1.83-.07A2.54,2.54,0,0,0,74,264.85h0a2.54,2.54,0,0,0-2.63-2.43l-1.82.07A2.55,2.55,0,0,0,67.1,265.12Z"></path>
        <path class="cls-32" d="M43.36,319.45s-.55-6.54.33-8.45,4.36-10,4.36-10l23.16-32.32-1.58.19S48.25,294.49,46,298.44s-7,4.25-7.47,25C38.53,323.47,42.82,322.5,43.36,319.45Z"></path>
        <path class="cls-2" d="M133,434c-6-3-16.11-2.92-22.56.26a13.1,13.1,0,0,0-2.77,1.77,20.72,20.72,0,0,0-13.67,1c-4.54,2.23-4.79,5.77-.57,7.9,4,2,10.76,2,15.3.07.28.17.57.33.89.49,6,3,16.1,2.92,22.56-.25S139,437.07,133,434Z"></path>
        <path class="cls-24" d="M105.33,327c-.71-1.79-3.7-9.88-3.7-9.88l-6.35,2.48,4.23,15Z"></path>
        <path class="cls-23" d="M104.44,323.63s4.48,11,5.63,14.38-7.33,6.44-7.33,6.44L95.67,327.6Z"></path>
        <path class="cls-33" d="M96,434.61l3.46.41c2.28-.79,3.34-1.58,4.4-.45l.3.32a2.45,2.45,0,0,1-.39,2.88l-5.6,4.71c-1.17.61-3.38.15-3.79-1.55,0,0-.39-4.77.15-5C95.56,435.37,95,435.1,96,434.61Z"></path>
        <polygon class="cls-33" points="104.12 388.45 117.16 390.73 117.16 377.11 104.12 374.83 104.12 388.45"></polygon>
        <path class="cls-33" d="M121.3,437.12l4.64.39c3.32-.73,4.95-1.46,6.13-.4l.33.3c.47.77-.06,2.11-1.25,2.69l-8.81,4.39c-1.75.57-3.67.11-3.81-1.48,0,0-.35-4.46.45-4.7C120.58,437.82,119.91,437.57,121.3,437.12Z"></path>
        <path class="cls-34" d="M123.86,439.1c.13,1.87-4.41,2.19-4.54.32l-.43-6.07,4.54-.32Z"></path>
        <path class="cls-35" d="M124.44,433.59c-1.41,2.28-5.34,2.57-6.31,1.18-1.2-8.53-4.84-17.43-2.51-29.5l-6.77-35.46,16.25,1.88-.45,38.06Z"></path>
        <path class="cls-34" d="M98.91,437.29c-.3,1.85-4.8,1.13-4.5-.72l1-6,4.5.73Z"></path>
        <path class="cls-35" d="M100.73,432.06c-1.89,1.9-5.8,1.29-6.42-.28.77-8.59-.76-18.08,4.26-29.3L100,366.4l15.4,5.53-9.08,37Z"></path>
        <path class="cls-36" d="M116.69,330c.29,3.67-1.82,5.53-4.73,4.15s-4.21-5.83-4.5-9.51,2.1-4,3.44-3.8C114.07,321.35,116.4,326.31,116.69,330Z"></path>
        <path class="cls-24" d="M121.34,328.43c-.1,3.68-3.46,5.87-6.2,4.19s-4.88-6-4.78-9.73,2.41-5.31,5.15-3.62S121.44,324.74,121.34,328.43Z"></path>
        <path class="cls-24" d="M112.52,339.78l-.38-.1a2.39,2.39,0,0,1-1.71-2.91l1.85-7.18a2.41,2.41,0,0,1,2.92-1.72l.37.1a2.4,2.4,0,0,1,1.72,2.92l-.77,7.15C116.19,339.32,113.79,340.11,112.52,339.78Z"></path>
        <path class="cls-33" d="M108.76,331.68s.68,2.48,5.21,2c3.42-.38,1-6.24,4.09-7.69,4.23-2,2.56-6.1.69-7.45s-4.24-.58-7.17.4C108.49,320,104.27,322.35,108.76,331.68Z"></path>
        <circle class="cls-36" cx="117.47" cy="327.47" r="1.62" transform="matrix(0.32, -0.95, 0.95, 0.32, -230.34, 335.39)"></circle>
        <path class="cls-23" d="M98.86,374.16c-.49-10,1.16-18.38.72-26.21.17-14.95,1.69-11.8,6.57-12.81l3.28-.37c1,.2,2,.67,3,.92,4.24,1,7,1.27,10,2.92,2.72,1.46,2.87,5.39,2.87,8.68.73,9.64.92,24.15,1.06,28.9C124.81,383,101.44,378.77,98.86,374.16Z"></path>
        <path class="cls-29" d="M118.08,333.06l-.59-.76a2.44,2.44,0,0,0,2.05,0A3.11,3.11,0,0,1,118.08,333.06Z"></path>
        <path class="cls-22" d="M126.44,348.41,124,351.1c-2.92,11.78-1.57,23.73-6.36,28.76,2.93,0,5.62-.39,7.6-1.85a3,3,0,0,0,1.16-2.27Z"></path>
        <path class="cls-8" d="M108.87,334.57a2.28,2.28,0,0,0,1.76,3c2.56.81,6.78-.62,6.78-.62S114.6,334,108.87,334.57Z"></path>
        <path class="cls-33" d="M118.06,328.58h0a.55.55,0,0,1-.61-.47l-1-3.44c0-.3.73-.12,1-.16h0c.29,0,1.14-.31,1.18,0l-.17,3.47A.54.54,0,0,1,118.06,328.58Z"></path>
        <path class="cls-24" d="M98.73,301s-3.9,14.45-3.46,18.33,6.77-.79,6.77-.79l.83-15.61Z"></path>
        <path class="cls-24" d="M98.23,297.48h0a2.43,2.43,0,0,1,3.34.61l1.08,4.34c.54,1,.06.36-1.23,1.06h0c-1.29.69-.93,1.76-2.41,0l-1.48-2.95a4,4,0,0,1-.39-1.22C97,298.55,97.22,298,98.23,297.48Z"></path>
        <path class="cls-24" d="M145.66,309.09s-1.24,13.49-3.07,16.93-7.44-1.45-7.44-1.45l6.47-15.06Z"></path>
        <path class="cls-24" d="M145.66,304.25h0a2.42,2.42,0,0,0-3.28.85l-.76,4.41c-.47,1.06,0,.36,1.3,1h0c1.33.6,1.05,1.69,2.4-.15l1.26-3.05a3.53,3.53,0,0,0,.3-1.25C146.93,305.22,146.71,304.72,145.66,304.25Z"></path>
        <path class="cls-24" d="M135.84,338.51c.93-1.7,6-11.8,6-11.8l-6-3.31-12.87,17Z"></path>
        <path class="cls-23" d="M126.26,351.94,137.62,337c3-1.8-7-9.22-10.13-6.73-.2.15-10,10.95-10,10.95S120.22,352.42,126.26,351.94Z"></path>
      </g>
    </g>
  </g>
</svg>
