<?xml version="1.0" encoding="UTF-8"?>
<svg xmlns="http://www.w3.org/2000/svg" viewBox="0 0 433.87 396.43">
  <defs>
    <style>.cls-1{isolation:isolate;}.cls-2{fill:#d6e8ff;}.cls-3{fill:#191786;}.cls-12,.cls-16,.cls-20,.cls-4{fill:#fff;}.cls-5{fill:#ea7f17;}.cls-6{fill:#0e2e80;}.cls-7{fill:#f0b52d;}.cls-8{fill:#173886;}.cls-9{fill:#d5d5d5;}.cls-10,.cls-14,.cls-15,.cls-17,.cls-45,.cls-46{fill:none;}.cls-10{stroke:#2a417d;}.cls-10,.cls-14,.cls-15,.cls-17{stroke-linecap:round;stroke-linejoin:round;}.cls-10,.cls-11,.cls-45{stroke-width:2px;}.cls-11,.cls-13,.cls-40,.cls-47{fill:#006fff;}.cls-11,.cls-12,.cls-16{stroke:#355191;}.cls-11,.cls-12,.cls-16,.cls-19,.cls-20,.cls-45,.cls-46{stroke-miterlimit:10;}.cls-14{stroke:#808fc6;}.cls-14,.cls-15{stroke-width:3px;}.cls-15,.cls-17{stroke:#fff;}.cls-16,.cls-19,.cls-20{stroke-width:2.32px;}.cls-17{stroke-width:2.3px;}.cls-18{fill:#80b2e0;}.cls-18,.cls-21,.cls-40{opacity:0.43;}.cls-18,.cls-21,.cls-23,.cls-40,.cls-41,.cls-47{mix-blend-mode:multiply;}.cls-19{fill:#d5e3ff;}.cls-19,.cls-20,.cls-45,.cls-46{stroke:#006fff;}.cls-21{fill:#78aae0;}.cls-22{fill:#8cc0ff;}.cls-23{fill:#9da7da;opacity:0.4;}.cls-24{fill:#002b59;}.cls-25{fill:#0a8045;}.cls-26{fill:#3eb77d;}.cls-27{fill:#ff8066;}.cls-28{fill:#a1a4e7;}.cls-29{fill:#003d7f;}.cls-30{fill:#003166;}.cls-31{fill:#afc1ea;}.cls-32{fill:#88a5ea;}.cls-33{fill:#d3daff;}.cls-34{fill:#ffc4c0;}.cls-35{fill:#c9563b;}.cls-36{fill:#ff4848;}.cls-37{fill:#0a0a38;}.cls-38{fill:#60809c;}.cls-39{fill:#4e6f80;}.cls-41{fill:#9db9da;}.cls-42{fill:#3072ff;}.cls-43{fill:#265abe;}.cls-44{fill:#d6dfe9;}.cls-46{stroke-width:4px;}</style>
  </defs>
  <g class="cls-1">
    <g id="Layer_2" data-name="Layer 2">
      <g id="Layer_1-2" data-name="Layer 1">
        <ellipse class="cls-2" cx="137.17" cy="388.46" rx="7.97" ry="16.04" transform="translate(-253.65 518.72) rotate(-88.98)"></ellipse>
        <path class="cls-3" d="M130.42,388l-3.93,1.38c-3,.15-4.63-.08-5.41,1.07l-.22.33c-.78,1.14-.08,2.14,1.57,2.21l8.55,1.43c1.65.08,2.31-1,2.87-2.34a5.76,5.76,0,0,0-.58-3.41C132.6,387.38,131.74,388.06,130.42,388Z"></path>
        <path class="cls-4" d="M128.7,389.38c0,1.88,4.57,1.88,4.57,0v-6.11H128.7Z"></path>
        <path class="cls-2" d="M78.46,182.75l83.34-48.54c2.4-1.4,35.76-8.46,38.2-7.06l52,29.19c4.92,6.44-1.95,12.72-7.13,15.73l-123.1,71.07a23.79,23.79,0,0,1-13.93,3.07l-60.47-5.27C26.43,228.88,57.84,194.76,78.46,182.75Z"></path>
        <polygon class="cls-5" points="208.93 99.61 220.21 116.11 205.03 109 208.93 99.61"></polygon>
        <path class="cls-5" d="M30.91,148.08a13.2,13.2,0,0,1-3.15-3.14c-2.21-3.56-1-11.66,6.35-8.58a36.09,36.09,0,0,1,6.44,3.49c3.27,2.27,5.42,4.85,5,7.1C45,149.94,37,152.28,30.91,148.08Z"></path>
        <path class="cls-5" d="M192.57,127.42l-27.31-15.19c-5.89-3.28-5.14-9,1.66-12.83h0c6.8-3.79,17.18-4.2,23.07-.93l27.3,15.19c5.89,3.28,5.15,9-1.65,12.83h0C208.84,130.28,198.46,130.69,192.57,127.42Z"></path>
        <path class="cls-6" d="M220.2,134l-11.18,1V139L167.18,115.7l-32.85,8,.45,14.18a7.05,7.05,0,0,0,3.73,6.21L56,171.79c7.53,4.19,36.78,51.32,44.31,47.13l110.47-61.83a16.52,16.52,0,0,0,8.53-10.15Z"></path>
        <path class="cls-5" d="M203.17,96.33c-26.68-4.6-53.87,19.84-53.87,19.84l-9.8,68.92,32.36-17.81c.26-12.08,8.12-23.7,18-29.3,9.42-5.09,17-3.17,17.45,8.21l3.67-2.1V105.27A9.21,9.21,0,0,0,203.17,96.33Z"></path>
        <path class="cls-6" d="M40.18,238.3l-36-20a7.05,7.05,0,0,1-3.72-6.21l-.3-9.36,32.7-12.8,59.36,33L64.54,238.3A25.18,25.18,0,0,1,40.18,238.3Z"></path>
        <path class="cls-7" d="M39.74,228.69l-36-20a7,7,0,0,1,0-12.42l28.68-16,59.36,33L64.09,228.69A25.16,25.16,0,0,1,39.74,228.69Z"></path>
        <path class="cls-6" d="M116.35,208.53c0-.87-10-37.52-30.51-21.41-9,7-24.67,38.94-16.57,43.94S116.35,208.53,116.35,208.53Z"></path>
        <path class="cls-8" d="M90.7,215.17l.09,0c2.54-1.37,4.56-.19,4.53,2.64a9.81,9.81,0,0,1-4.58,7.57l-.09,0c-2.54,1.38-4.56.2-4.53-2.63A9.79,9.79,0,0,1,90.7,215.17Z"></path>
        <path class="cls-9" d="M90.86,209.79c5.18-2.82,9.32-.42,9.24,5.36s-4.24,12.59-9.34,15.47l-.19.1c-5.17,2.81-9.31.41-9.24-5.37s4.24-12.57,9.33-15.45Zm-.12,15.54a9.81,9.81,0,0,0,4.58-7.57c0-2.83-2-4-4.53-2.64l-.09,0a9.79,9.79,0,0,0-4.58,7.58c0,2.83,2,4,4.53,2.63l.09,0"></path>
        <path class="cls-8" d="M91,202.34c8.65-4.69,15.54-.68,15.41,8.95,0,.23,0,.46,0,.69a26.79,26.79,0,0,1-1.57,7.56c-2.53,7.15-7.85,14.07-14,17.53l-.32.18c-6,3.26-11.16,2.33-13.71-1.77a12.17,12.17,0,0,1-1.66-5.71c0-.48,0-1,0-1.47.13-9.52,7.07-21,15.57-25.79A3.07,3.07,0,0,0,91,202.34Zm-.19,28.28c5.1-2.88,9.27-9.76,9.34-15.47S96,207,90.86,209.79l-.2.11c-5.09,2.88-9.25,9.75-9.33,15.45s4.07,8.18,9.24,5.37l.19-.1"></path>
        <path class="cls-8" d="M190.6,159.57l.09,0c2.53-1.38,4.56-.2,4.52,2.63a9.76,9.76,0,0,1-4.58,7.58l-.08.05c-2.54,1.37-4.57.2-4.53-2.63A9.79,9.79,0,0,1,190.6,159.57Z"></path>
        <path class="cls-9" d="M190.76,154.19c5.18-2.82,9.32-.42,9.24,5.36s-4.24,12.58-9.34,15.47l-.19.1c-5.18,2.81-9.31.41-9.24-5.37s4.24-12.58,9.33-15.45Zm-.13,15.54a9.76,9.76,0,0,0,4.58-7.58c0-2.83-2-4-4.52-2.63l-.09,0a9.79,9.79,0,0,0-4.58,7.58c0,2.83,2,4,4.53,2.63l.08-.05"></path>
        <path class="cls-8" d="M190.85,146.74c8.64-4.7,15.54-.69,15.41,8.95,0,.23,0,.46,0,.68a26.64,26.64,0,0,1-1.57,7.56c-2.54,7.16-7.85,14.07-14,17.54l-.33.18c-6,3.26-11.15,2.32-13.7-1.78a12.25,12.25,0,0,1-1.67-5.71c0-.47,0-1,0-1.46.12-9.53,7.07-21,15.57-25.79ZM190.66,175c5.1-2.89,9.26-9.76,9.34-15.47s-4.06-8.18-9.24-5.36l-.2.11c-5.09,2.87-9.25,9.74-9.33,15.45s4.06,8.18,9.24,5.37l.19-.1"></path>
        <path class="cls-5" d="M149.3,116.17l-32.36,19.09s-25.93,35.12-29,38.23c-2.54,2.58-28.29,22.09-29.92,24.62-3.4,5.29-4.31,8-4.13,13.16,0,0,.3,20.23.33,20.4,6.69-.54,10.4-3.32,13-4.45l4.45-2.57c.26-12.09,8.12-23.71,18-29.31,9.43-5.09,17-3.16,17.45,8.21l40.32-23Z"></path>
        <path class="cls-7" d="M164.19,76.84,205.48,97c-14.54-.64-29.9,3.67-42.32,11L131,127a79.44,79.44,0,0,0-23.47,21.13c-3.48,4.71-7.15,9.6-9.49,12.55C95.16,164.27,85,178.17,85,178.17s-17.11,12.57-23.07,18.92a49.21,49.21,0,0,0-5.45,7,30.3,30.3,0,0,0-5,16.69L5.14,193.13a30.24,30.24,0,0,1,5-16.68,49.21,49.21,0,0,1,5.45-7c6-6.35,14.15-13.08,20.52-18.37,1.66-1.38,14.69-19.28,24.24-32.54A79.33,79.33,0,0,1,86.12,95.61L119.52,77c.39-.2.78-.4,1.16-.58A49.91,49.91,0,0,1,164.19,76.84Z"></path>
        <path class="cls-7" d="M36.09,151.08c-2.54,2.49-6.3,5-8.87,7.17C22,162.63,18,165.57,13.44,170c-1,.94-1.95,2-3,3.05-.36.38-.71.77-1.06,1.17,0,0-6.06,7.4-7.39,11.75-.18.46-.34.92-.5,1.39s-.33,1-.47,1.54-.31,1.19-.44,1.78c-.16.76-.29,1.51-.38,2.25C.05,194.28,0,201.2,0,202.43l51.45,18.35,4.24-13.43c.35-.4.71-6.23,1.07-6.62,1-1.1.27,1.24,1.23.3,4.58-4.47,10.14-10.1,15.4-14.48,2.57-2.13,6.15-5,9.43-7.55Z"></path>
        <path class="cls-4" d="M5.62,189.63a2.38,2.38,0,0,0,3.46-1.93l1.17-13.31a56.15,56.15,0,0,0-6.52,10.13,3.88,3.88,0,0,0,1.87,5.11Z"></path>
        <path class="cls-4" d="M45.06,208.56l18.5-12.91a2.44,2.44,0,0,1,3.74,2.61c-1,4-3.06,9-6.94,12-6.46,5-11.93,4.59-15.27,2.33A2.44,2.44,0,0,1,45.06,208.56Z"></path>
        <polygon class="cls-8" points="74.45 166.28 43.47 147.44 66.23 116.11 97.22 134.96 74.45 166.28"></polygon>
        <polygon class="cls-8" points="83.91 172.07 52.92 153.23 75.69 121.91 106.67 140.75 83.91 172.07"></polygon>
        <path class="cls-5" d="M211,126.34v17.75l5.63-2.76A9.77,9.77,0,0,0,221,137h0a9.8,9.8,0,0,0,1-5.08L221.27,121Z"></path>
        <path class="cls-8" d="M102.71,179.94l41.13-25,3.49-28.35s-25.28,8.38-45.88,48.19C99.9,177.77,100.62,181.2,102.71,179.94Z"></path>
        <path class="cls-7" d="M112.6,174.81a13.19,13.19,0,0,1,3.49,2.79c2.59,3.31,2.25,11.49-5.37,9.18a36.17,36.17,0,0,1-6.78-2.8c-3.51-1.92-5.93-4.26-5.77-6.55C98.37,174.4,106.13,171.25,112.6,174.81Z"></path>
        <path class="cls-8" d="M157.11,149l20.09-11.77c4.82-2.83,9.42-10.35,12.11-16.76l.19-.45c2.5-6.18.59-12.43-3.83-11.61-5,.93-25.09,12-26.14,12.62l-.38.2a10.2,10.2,0,0,0-4.39,7.1l-2.07,17C152.26,148.83,154.36,150.58,157.11,149Z"></path>
        <path class="cls-4" d="M221.23,119.52l0-.14c.15-1.71-.64-2.86-2-2.71a5.75,5.75,0,0,0-2,.73,23.79,23.79,0,0,0-4.8,3.94c-1.69,1.73-2.27,4.47-1.13,5.5a1.52,1.52,0,0,0,1.81,0l5-2.64.07,0A6.58,6.58,0,0,0,221.23,119.52Z"></path>
        <line class="cls-10" x1="6.07" y1="194.05" x2="40.27" y2="212.36"></line>
        <path class="cls-2" d="M207.79,341.56,84.29,277.15c-4.44-2.32-3.83-6.6,1.36-9.57l170.2-97.24c5.2-3,13-3.5,17.44-1.19L396.8,233.56c4.44,2.32,3.82,6.6-1.37,9.57l-170.2,97.25C220,343.34,212.23,343.87,207.79,341.56Z"></path>
        <path class="cls-6" d="M387.73,231.8a6.65,6.65,0,0,0-1.62-1.15L265,167.5c-4.36-2.27-12-1.75-17.1,1.16L81.06,264a13.29,13.29,0,0,0-1.54,1l-2.71,1.24.06,3.74a4.84,4.84,0,0,0,2.85,3.37l121.09,63.15c4.35,2.27,12,1.75,17.1-1.16L384.77,240c2.65-1.51,4.07-3.37,4.22-5.13l0-3Z"></path>
        <path class="cls-11" d="M200.16,335.41,76.66,271c-4.44-2.31-3.83-6.6,1.37-9.56l170.2-97.25c5.19-3,13-3.5,17.44-1.18l123.5,64.41c4.44,2.31,3.83,6.6-1.37,9.56L217.61,334.23C212.41,337.2,204.6,337.73,200.16,335.41Z"></path>
        <polygon class="cls-12" points="207.8 325.1 89.06 263.17 259.69 168.11 378.42 230.03 207.8 325.1"></polygon>
        <path class="cls-6" d="M349.07,206.6,345,204.49h0c4.78-2.67,4.78-6.86,0-9.35l-22-11.47c-4.79-2.5-12.55-2.36-17.34.31L303,182.56c-5-2.6-13.06-2.46-18,.32h0c-5,2.77-5,7.13,0,9.73l46.11,24c5,2.6,13.06,2.46,18.05-.32h0C354.05,213.56,354.05,209.2,349.07,206.6Z"></path>
        <path class="cls-13" d="M349.07,202.93,345,200.81h0c4.78-2.66,4.78-6.85,0-9.35L323,180c-4.79-2.5-12.55-2.36-17.34.31L303,178.88c-5-2.6-13.06-2.45-18,.32h0c-5,2.78-5,7.14,0,9.73L331,213c5,2.6,13.06,2.46,18.05-.32h0C354.05,209.88,354.05,205.53,349.07,202.93Z"></path>
        <path class="cls-4" d="M336.46,202.29,302.8,184.21a1.68,1.68,0,0,1-.06-3h0a2,2,0,0,1,2-.07l33.66,18.08a1.68,1.68,0,0,1,.06,3h0A2,2,0,0,1,336.46,202.29Z"></path>
        <line class="cls-14" x1="277.6" y1="214.86" x2="310.04" y2="232.02"></line>
        <line class="cls-14" x1="265.68" y1="221.23" x2="320.54" y2="249.83"></line>
        <polygon class="cls-13" points="247.43 212.86 226.24 201.74 247.36 189.95 268.55 201.07 247.43 212.86"></polygon>
        <polyline class="cls-15" points="242.76 197.37 241.24 203.44 256.24 201.88"></polyline>
        <line class="cls-14" x1="230.44" y1="240.73" x2="262.89" y2="257.89"></line>
        <line class="cls-14" x1="218.53" y1="247.09" x2="273.39" y2="275.7"></line>
        <polygon class="cls-13" points="200.28 238.73 179.08 227.61 200.21 215.81 221.4 226.93 200.28 238.73"></polygon>
        <polyline class="cls-15" points="195.61 223.23 194.09 229.3 209.09 227.74"></polyline>
        <line class="cls-14" x1="183.29" y1="266.59" x2="215.74" y2="283.75"></line>
        <line class="cls-14" x1="171.38" y1="272.95" x2="226.24" y2="301.56"></line>
        <polygon class="cls-13" points="153.13 264.59 131.93 253.47 153.06 241.67 174.25 252.79 153.13 264.59"></polygon>
        <polyline class="cls-15" points="148.46 249.1 146.94 255.17 161.94 253.6"></polyline>
        <path class="cls-2" d="M421.84,288.11C415.38,275,394.65,268.32,372,272.06c-20,3.3-32.58,14.34-30.74,25.89a14.82,14.82,0,0,0,1.47,9,20.8,20.8,0,0,0,3.51,5l-6.75,3.89a12.43,12.43,0,0,0-2.79-1.9c-2.12-1-3.95-.93-5.17,0h0l-37.25,22.25h0c-1.37.78-2.14,2.49-1.95,4.88a15.72,15.72,0,0,0,8.06,11.71,5.26,5.26,0,0,0,4.61.35h0l.05,0a3,3,0,0,0,.43-.25l37-22.13h0c1.58-.69,2.5-2.47,2.29-5.07a11.19,11.19,0,0,0-.36-2l9.81-5.66c10.58,5.85,26.12,8.4,41.23,5.91,20-3.3,32.58-14.34,30.74-25.89C426.65,295,423.34,291.13,421.84,288.11Zm-62.56,19.7c.7.45,1.42.88,2.18,1.28C360.7,308.69,360,308.26,359.28,307.81Zm54.18-5.75a14,14,0,0,0,1.34-2.57,14,14,0,0,1-1.34,2.57,15.59,15.59,0,0,1-1.24,1.63A15.59,15.59,0,0,0,413.46,302.06Zm-45.74,9.65c.8.26,1.63.49,2.47.71-.84-.22-1.67-.45-2.47-.71s-1.78-.6-2.63-.94C365.94,311.11,366.82,311.42,367.72,311.71Zm14.88,2.34c-1.59,0-3.15-.11-4.69-.27C379.45,313.94,381,314,382.6,314.05Zm9.6-.72a41.5,41.5,0,0,0,13.69-4.59,41.5,41.5,0,0,1-13.69,4.59,55.9,55.9,0,0,1-6.42.67A55.9,55.9,0,0,0,392.2,313.33ZM409.88,306a23.1,23.1,0,0,1-1.88,1.42A23.1,23.1,0,0,0,409.88,306Z"></path>
        <path class="cls-16" d="M333.38,325.45l-8.06-4.65,21.86-12.62c4.5-2.75,9.4,3.25,6,5.65Z"></path>
        <path class="cls-6" d="M420.65,287.5c-6.47-13.07-30.06-20.63-52.7-16.9S332.21,288,338.68,301s30.06,20.64,52.7,16.9S427.12,300.57,420.65,287.5Zm-31.24,25.9c-19.38,3.19-39.58-3.28-45.12-14.47s5.68-22.85,25.06-26.05,39.58,3.28,45.12,14.47S408.79,310.2,389.41,313.4Z"></path>
        <ellipse class="cls-13" cx="333.82" cy="321.47" rx="5.8" ry="10.05" transform="translate(-123.42 245.94) rotate(-34.54)"></ellipse>
        <polygon class="cls-13" points="290.75 335.53 328 313.29 338.94 330.06 301.47 352.48 290.75 335.53"></polygon>
        <ellipse class="cls-6" cx="296.21" cy="343.95" rx="5.8" ry="10.05" transform="translate(-142.8 228.57) rotate(-34.54)"></ellipse>
        <path class="cls-17" d="M289.64,336.24c1.22-.84,3-.87,5.05.1a15.72,15.72,0,0,1,8.06,11.71,5.57,5.57,0,0,1-1.13,4.24"></path>
        <path class="cls-13" d="M420.65,285.09c-6.47-13.07-30.06-20.64-52.7-16.9s-35.74,17.35-29.27,30.42,30.06,20.63,52.7,16.9S427.12,298.15,420.65,285.09ZM389.41,311c-19.38,3.2-39.58-3.28-45.12-14.47s5.68-22.85,25.06-26.05,39.58,3.29,45.12,14.47S408.79,307.78,389.41,311Z"></path>
        <path class="cls-4" d="M387.56,301.46l.28.05a1.6,1.6,0,0,0,1.64-.84l8.11-16.36a.82.82,0,0,0-.59-1.26l-.28-.06a1.62,1.62,0,0,0-1.64.85L387,300.2A.82.82,0,0,0,387.56,301.46Z"></path>
        <path class="cls-4" d="M380.82,298.39l.14,0a.76.76,0,0,0,.78-.4l8.66-17.46a.39.39,0,0,0-.28-.6l-.14,0a.79.79,0,0,0-.78.4l-8.66,17.47A.4.4,0,0,0,380.82,298.39Z"></path>
        <path class="cls-17" d="M333.52,313.29s5,1.46,7.6,10.83"></path>
        <path class="cls-18" d="M402.09,48.4c-8.85-4.91-17.37-5.34-24.31-2.18h0L366.47,52.6l.49,3.51a41.27,41.27,0,0,0-5.46,17.55c-2.47,24.93,11.7,54,31.65,65a32.53,32.53,0,0,0,12.3,4h0l6.09,1.45c1-.32,5.59-3.13,6.53-3.6l.17-.07h0c8.28-4.16,14.71-13.55,15.52-27.07C435.25,88.46,421.9,59.37,402.09,48.4Z"></path>
        <ellipse class="cls-19" cx="388.27" cy="97.82" rx="33.58" ry="51.97" transform="translate(-7 161.73) rotate(-23.32)"></ellipse>
        <ellipse class="cls-20" cx="388.27" cy="97.82" rx="26.97" ry="41.73" transform="translate(-7 161.73) rotate(-23.32)"></ellipse>
        <path class="cls-21" d="M390.7,133.58c-16.31-9.4-27.87-33.12-25.81-53,1.32-12.68,7.87-20.7,16.68-22.41-11.81-1.44-21.23,7.11-22.83,22.6-2.06,19.85,9.49,43.57,25.8,53,5.9,3.4,11.61,4.46,16.6,3.49A27.81,27.81,0,0,1,390.7,133.58Z"></path>
        <path class="cls-22" d="M391.51,67.22c0,1.68-1.05,3.07-2.32,3.11s-2.29-1.29-2.28-3,1-3.07,2.32-3.11S391.52,65.54,391.51,67.22Z"></path>
        <path class="cls-22" d="M389.49,129.33c0,1.68-1.05,3.07-2.32,3.11s-2.29-1.29-2.28-3,1.05-3.07,2.32-3.11S389.5,127.65,389.49,129.33Z"></path>
        <path class="cls-22" d="M411.35,114.85A2.76,2.76,0,0,1,410,111.3a2.61,2.61,0,0,1,3.65-.74A2.74,2.74,0,0,1,415,114.1,2.61,2.61,0,0,1,411.35,114.85Z"></path>
        <path class="cls-22" d="M361.44,87.14a2.75,2.75,0,0,1-1.38-3.55,2.62,2.62,0,0,1,3.65-.75,2.76,2.76,0,0,1,1.38,3.55A2.61,2.61,0,0,1,361.44,87.14Z"></path>
        <path class="cls-22" d="M400.4,122.59,387,99.11a.35.35,0,0,1,.09-.48h0a.34.34,0,0,1,.46.15L401,122.26a.36.36,0,0,1-.1.48h0A.35.35,0,0,1,400.4,122.59Z"></path>
        <path class="cls-22" d="M388.22,99.53l-18.38,11.79a1.46,1.46,0,0,1-2.09-.51h0a1.69,1.69,0,0,1,.57-2.22l18.38-11.8a1.46,1.46,0,0,1,2.09.51h0A1.7,1.7,0,0,1,388.22,99.53Z"></path>
        <path class="cls-13" d="M389.47,82.3l-.59,15.34a1.64,1.64,0,0,1-1.59,1.6h0a1.5,1.5,0,0,1-1.47-1.62l.58-15.33a1.65,1.65,0,0,1,1.6-1.61h0A1.52,1.52,0,0,1,389.47,82.3Z"></path>
        <path class="cls-13" d="M390,98.85a2,2,0,0,1-2.81,2,4.53,4.53,0,0,1-2.77-4,2,2,0,0,1,2.81-2A4.55,4.55,0,0,1,390,98.85Z"></path>
        <path class="cls-4" d="M388.49,98.12a.9.9,0,0,1-1.27.92A2.06,2.06,0,0,1,386,97.22a.9.9,0,0,1,1.27-.92A2,2,0,0,1,388.49,98.12Z"></path>
        <ellipse class="cls-2" cx="305.47" cy="143.46" rx="28.66" ry="13.15"></ellipse>
        <ellipse class="cls-13" cx="291.21" cy="141.77" rx="13.3" ry="23.05" transform="translate(147.86 432.21) rotate(-89.69)"></ellipse>
        <polygon class="cls-13" points="257.39 109.46 268.24 142.7 314.09 143.46 324.56 111.42 257.39 109.46"></polygon>
        <path class="cls-23" d="M310.32,110.78l-10.47,31.91h0c-1.44,4.89-2.76,6-6.52,8.15a28.87,28.87,0,0,1-9.41,3.52c7.75,1.3,16.37-.16,22.43-3.66,3.77-2.18,5.94-3.28,6.53-8h0l10.46-31.91Z"></path>
        <ellipse class="cls-20" cx="291.21" cy="107.34" rx="19.66" ry="34.05" transform="translate(182.29 397.97) rotate(-89.69)"></ellipse>
        <ellipse class="cls-24" cx="290.97" cy="106.71" rx="16.87" ry="29.22" transform="translate(182.69 397.1) rotate(-89.69)"></ellipse>
        <path class="cls-25" d="M292.16,96.77c2.9-26.36,25.32-69.69,25.32-69.69-28.89,8.58-30.8,37.13-30.8,37.13Z"></path>
        <path class="cls-25" d="M285.63,73.48c3-26.35-9.7-73.48-9.7-73.48,26.26,14.8,21.75,43.06,21.75,43.06Z"></path>
        <path class="cls-26" d="M329.9,41.69c-24.12,5.44-38.69,47.65-38.69,47.65v.09c-.89-53.8-34.87-68.06-34.87-68.06,10.14,14.77,19.7,65.08,22.59,81.33A12.38,12.38,0,0,0,291.61,113c.35,0,.69,0,1-.08a12.25,12.25,0,0,0,10.52-10C307.62,80.43,329.9,41.69,329.9,41.69Z"></path>
        <path class="cls-27" d="M95.42,270.79s9,16.25,9.68,26.33c0,0-2.5,5.53-4.34.62-4.47-12-7.56-22.22-11.14-26.29S95.42,270.79,95.42,270.79Z"></path>
        <ellipse class="cls-2" cx="78.72" cy="364.75" rx="20.7" ry="10.28" transform="translate(-7.85 1.78) rotate(-1.24)"></ellipse>
        <path d="M75.17,368l-3.46-7.88a5.57,5.57,0,0,0-3.42-1.28A1.52,1.52,0,0,0,67,359.87l-.51,1.35c-.8,1.93-.75,2.24,0,3.14L71,369.68a3.14,3.14,0,0,0,3.32.84l.3-.13A1.44,1.44,0,0,0,75.17,368Z"></path>
        <path class="cls-28" d="M66.46,359.93c0,1.87,4.68,2.37,4.68.5l0-6.09-4.68-.5Z"></path>
        <path d="M92.7,360.9,85,355.42a6.1,6.1,0,0,0-3.62-.19c-.64.15-.73-.33-.71.26l-.72,2.45c-.67,1.63-.85,1.9,1,2.59l7.8,3a5.22,5.22,0,0,0,4.23-.3l.28-.2C94.26,362.38,94,361.41,92.7,360.9Z"></path>
        <path class="cls-28" d="M80.66,356c0,1.93,4.7,1.93,4.7,0v-6.29h-4.7Z"></path>
        <path class="cls-29" d="M80.67,354.05c1.86,1.34,4.91,1.31,5.9-.25A310.46,310.46,0,0,0,90.51,295l-14.67-4.39C78.77,314.53,82.18,335.7,80.67,354.05Z"></path>
        <path class="cls-29" d="M66,356c1.32,2.29,4.66,2.67,5.74,1.23l11-63.44-15.65-1.18Z"></path>
        <path class="cls-30" d="M78.8,315.72l1.07,5.91,3.58-17.71c-.72.22-.73-.67-1.54-.52Z"></path>
        <path class="cls-27" d="M70.55,277.3c-3.5,4.14-5.23,6.15-8,11.82-1.8,3.71-1,6.92.54,8.94,2.12,2.76,4.56,5.87,4.56,5.87L65,306.4s-9.89-8.46-8.31-16.24l5.83-18.4Z"></path>
        <path class="cls-27" d="M65.32,304.63l.44-.42a2.16,2.16,0,0,1,3,.24l1.73,1.84a2.14,2.14,0,0,1,.06,3l-.44.41a2.13,2.13,0,0,1-3-.24l-1.73-1.83A2.13,2.13,0,0,1,65.32,304.63Z"></path>
        <path class="cls-31" d="M91.07,260.23c4.66,7.47,9.13,15,9.64,20.1-1.23,4.27-2.4,1.9-5.39,3L86.38,267.6l2.44-4.11Z"></path>
        <path class="cls-31" d="M91.56,296a180.4,180.4,0,0,1,1.82-23.43c.4-12.75-4.27-17.62-12.4-14.94l-3.34.78c-9.86,4.92-14.78,4.5-13.36,14.82l1,22.54C64.91,307.34,91.75,309.62,91.56,296Z"></path>
        <polygon class="cls-32" points="70.55 276.51 65.83 293.74 65.27 295.41 64.92 287.03 70.55 276.51"></polygon>
        <path class="cls-31" d="M71.39,274.49l-9.12,17.3c-.72,1-6-.59-6-2.44.13-3.85,6.18-23.88,11.94-26.38C72.92,260.94,74.13,268.31,71.39,274.49Z"></path>
        <path class="cls-27" d="M103.68,304.23h0a2.19,2.19,0,0,0,1.29-2.79l-1.77-4.83a2.19,2.19,0,0,0-2.79-1.29h0a2.17,2.17,0,0,0-1.29,2.79l1.77,4.83A2.18,2.18,0,0,0,103.68,304.23Z"></path>
        <path class="cls-27" d="M104.8,300.27h0a2.18,2.18,0,0,0,1.29-2.79l-1.78-4.82a2.18,2.18,0,0,0-2.79-1.29h0a2.18,2.18,0,0,0-1.29,2.79L102,299A2.17,2.17,0,0,0,104.8,300.27Z"></path>
        <polygon class="cls-33" points="104.57 300.34 100.71 302.44 101.81 304.57 105.91 302.02 104.57 300.34"></polygon>
        <path class="cls-34" d="M129,300.63s-4.4,18.89-14.58,15.39c-8.3-2.86-13.24-11.45-13.24-11.45l5.26-2.78s8,6.91,10.47,6.32c5.51-1.34,4.54-13.57,8.34-14.75C127.44,292.68,129,300.63,129,300.63Z"></path>
        <path class="cls-32" d="M62,289.77a2,2,0,0,1,.68,2.41c-.69,1.41-7.71.52-7.2-1.75S56.36,287.19,62,289.77Z"></path>
        <path class="cls-32" d="M96.69,284.4a2,2,0,0,1-2.39-1.55v0c-.27-1.55,6-4.91,6.87-2.76S101.75,283.3,96.69,284.4Z"></path>
        <path class="cls-3" d="M82.77,258.15a7.07,7.07,0,0,1-1.72,1.55c-.62.22-8.2-4.39-6.56-10.91,1-4.14,8.86-2.06,8.86-2.06Z"></path>
        <path class="cls-27" d="M78.44,263.77l-1.65-2c1.27.36,4.72,1,5.07-.23L83.79,255a2.41,2.41,0,0,0-1.66-3l-.38-.1a2.41,2.41,0,0,0-3,1.66l-3,6.61C75.48,261.51,77.17,263.41,78.44,263.77Z"></path>
        <path class="cls-35" d="M82.7,258.91a6.6,6.6,0,0,1-4.87-3.49s1.49,4.8,4.31,5.49Z"></path>
        <path class="cls-30" d="M67.22,311.86s3.87-6.8,3.93-7.49c0,0,1.47,3.55,0,5.52A5.31,5.31,0,0,1,67.22,311.86Z"></path>
        <path class="cls-36" d="M150,289.92c4.29,6.51,5.88,11.08,7.58,18.59a7.46,7.46,0,0,1,.07,4.16c-1.43,5.28-3.07,5.53-3.69,11-.31,2.77-3.78,1.42-3.47-1.38.57-5.11.66-4.08,2.29-9,.3-.92.64-1.83,1-2.73-.32.83.11,1.44-.06.7-.11-.46-.2-.93-.3-1.39-1.62-7.23-3.37-15.26-7.5-21.52-1.56-2.36,2.24-4.56,3.79-2.21Z"></path>
        <path class="cls-34" d="M150.67,288.27c2.91,5.07,5,13.64,6.93,20.58.73,1.92.27,3.65-.94,3.57l-4,.56c-1-.06-2.9-2.22-3.37-3.82l-5.13-17.65c-.84-2.87-.22-5.34,1.42-5.71l-3.92-2.86C141.9,281.89,148.92,283,150.67,288.27Z"></path>
        <path class="cls-37" d="M137.34,320l20.26,11.69a1.48,1.48,0,0,0,2.23-1.29v-14.1a1.48,1.48,0,0,0-.74-1.29l-20.26-11.7a1.49,1.49,0,0,0-2.23,1.29v14.11A1.49,1.49,0,0,0,137.34,320Z"></path>
        <path class="cls-27" d="M148.06,329.53l1.48.67a2.27,2.27,0,0,0,3-1.13h0a2.26,2.26,0,0,0-1.13-3l-1.47-.67a2.27,2.27,0,0,0-3,1.13h0A2.26,2.26,0,0,0,148.06,329.53Z"></path>
        <path class="cls-3" d="M148,377.56l-4-.5c-2.69-1.22-3.94-2.14-5.14-1.45l-.34.2c-1.19.69-1,1.91.34,2.71l5.9,4.7a3.91,3.91,0,0,0,4.35-.43s.66-.59.19-3.1C149,378.25,149.07,378.2,148,377.56Z"></path>
        <path class="cls-38" d="M128.12,383.11c.58,2.38,5.33,2.21,6.26.67a258.66,258.66,0,0,1,7.38-63.64h-16.5A595.33,595.33,0,0,0,128.12,383.11Z"></path>
        <path class="cls-4" d="M144.26,377.93c.11,1.71,4.68,1.71,4.57,0l-.33-5.53h-4.58Z"></path>
        <path class="cls-38" d="M143.37,375.48c1.82,1.88,5.42,1.07,6.11-.28l-2.42-55.11-11.5,1.7Z"></path>
        <ellipse class="cls-27" cx="135.79" cy="274.5" rx="8.59" ry="4.87" transform="translate(-153.85 373.97) rotate(-82.63)"></ellipse>
        <path class="cls-27" d="M127.12,277.91c1.14,3.95,5.37,5.38,7.86,2.8s3.59-7.87,2.46-11.82-4.07-5.06-6.56-2.48S126,274,127.12,277.91Z"></path>
        <path class="cls-27" d="M136.7,289.31l.43-.1a2.67,2.67,0,0,0,2-3.18l-1.8-8.06a2.67,2.67,0,0,0-3.18-2l-.43.1a2.66,2.66,0,0,0-2,3.18l.58,8C132.63,288.66,135.27,289.63,136.7,289.31Z"></path>
        <path d="M141.51,278.51s-.43,3.72-5.72,3c-3.79-.53-2.68-6.7-6.48-7.32-4.17-.68-4.92-5.83-3.28-7.81s6.24-3,9.57-1.54S144.05,266.19,141.51,278.51Z"></path>
        <path class="cls-27" d="M129.3,276.3a1.81,1.81,0,1,0,1.24-2.24A1.81,1.81,0,0,0,129.3,276.3Z"></path>
        <path class="cls-34" d="M147.54,319.37c-1.35-7.4,1.43-12.44,1.31-20.31.64-13.13-3.59-16.72-8.13-16.25,0,0-4.1,1.21-5,1.69-9.86,5.08-12.49,6.65-12,12.54,0,9.7,1.38,20.59,1.58,25.36C127.26,329.11,145.28,324.17,147.54,319.37Z"></path>
        <path class="cls-35" d="M131.93,282l.43-1a2.74,2.74,0,0,1-2.22.58A3.49,3.49,0,0,0,131.93,282Z"></path>
        <polygon class="cls-39" points="138.15 340.15 142.99 333.19 138.15 335.32 138.15 340.15"></polygon>
        <path class="cls-29" d="M82.08,268h0A1.73,1.73,0,0,1,80,266.76l-.5-2.41a1.7,1.7,0,0,1,1.41-1.94h0A1.72,1.72,0,0,1,83,263.63l.5,2.42A1.7,1.7,0,0,1,82.08,268Z"></path>
        <path class="cls-29" d="M80.78,267.45c.67,4.56-.09,10.37-.6,16.1l3.69,2.6,2.07-3.56a64.29,64.29,0,0,0-2.63-15.84Z"></path>
        <path class="cls-4" d="M76.92,257.82l-3.3,2.41s2.3,4.39,5.1,5.16l2.26-3.3S77.71,260.59,76.92,257.82Z"></path>
        <path class="cls-4" d="M83.17,256.43l2.63,1.39s1,5.95-1.92,7l-3.29-2.74S83.17,260.91,83.17,256.43Z"></path>
        <ellipse class="cls-27" cx="85.05" cy="251.52" rx="7.49" ry="4.25" transform="translate(-171.72 319.11) rotate(-86.07)"></ellipse>
        <path class="cls-27" d="M77.68,255c1.19,3.38,6.93,5.63,9,3.26s.74-8.28-.46-11.65-3.81-4.2-5.84-1.82S76.48,251.57,77.68,255Z"></path>
        <path d="M81.81,247s.53,6.62-4.75,7.93c0,0-5.79-3.61-1.24-9.82,4-5.47,10-1,10-1Z"></path>
        <path class="cls-3" d="M89.28,251.67a6.28,6.28,0,0,0-4-4.16L88.05,246S90.8,246.71,89.28,251.67Z"></path>
        <path d="M78.94,250.75c1.2-1.5,3.65-1.4,7.1,0a3,3,0,0,0,1.65.22c2.61-.44,3.11-3.64,3.11-3.64.63-2.14-.76-3.15-2.89-3.79l-5.55-1.64c-3.14-1-6.3,1.55-6.93,3.68l-.16.35C74.64,248,76.81,250.12,78.94,250.75Z"></path>
        <path class="cls-27" d="M76.48,254.67a1.58,1.58,0,1,0,1-2A1.57,1.57,0,0,0,76.48,254.67Z"></path>
        <polygon class="cls-40" points="358.71 191.7 376.38 201.26 376.38 186.95 358.71 177.39 358.71 191.7"></polygon>
        <polygon class="cls-40" points="398.32 214.06 380.65 204.51 380.65 169.41 398.32 178.96 398.32 214.06"></polygon>
        <polygon class="cls-40" points="404.67 160.7 404.67 182.37 404.67 195.8 404.67 217.47 422.35 227.03 422.35 205.36 422.35 191.93 422.35 170.26 404.67 160.7"></polygon>
        <path class="cls-41" d="M331,231.89a7.08,7.08,0,0,0-10-3.83l-.14.07h0l-7.45,3.61a5.38,5.38,0,0,0-.85.34l-.14.07h0l-2.75,1.32h0l-79.87,38.69a2.16,2.16,0,0,0-.67.24l-6.75,9.18h0l-6.36,7.66,11.37-1.54h0l8.82-.94a3.81,3.81,0,0,0,.74-1l.21.34L311.87,250a5.8,5.8,0,0,1-.95.63l-.14.07h0l3.69-1.73h0l.14-.07a7.39,7.39,0,0,0,.91-.52l2.59-1.21h0l.14-.06a5.87,5.87,0,0,0,1.49-1.08l6.64-3.21h0l.14-.07A8.86,8.86,0,0,0,331,231.89Z"></path>
        <path class="cls-42" d="M320.22,225.38l-.14.07h0l-14.32,6.93a8.88,8.88,0,0,0-4.49,10.83,7.09,7.09,0,0,0,10,3.84l14.33-6.93h0l.14-.07a8.88,8.88,0,0,0,4.49-10.83A7.09,7.09,0,0,0,320.22,225.38Z"></path>
        <path class="cls-43" d="M325.71,240,236.39,283.4l-4.56-7.67,86.94-42.2C331.85,227.26,333.25,235.42,325.71,240Z"></path>
        <path class="cls-13" d="M231.83,275.73c-.78-3.85-3.48-1.13-2.9-6.21L310.47,230c6-1.1,8.15.53,8.64,3.34Z"></path>
        <path class="cls-44" d="M228.37,269.71,216.3,286.12l19.15-2.06C239.73,280,232.47,267.36,228.37,269.71Z"></path>
        <path class="cls-6" d="M215.26,286.55l6.36-7.66q4.94,1,5,6.12Z"></path>
        <line class="cls-45" x1="207.48" y1="70.57" x2="207.48" y2="89.84"></line>
        <ellipse class="cls-45" cx="207.48" cy="35.47" rx="20.71" ry="35.86" transform="translate(10.46 109.56) rotate(-30.31)"></ellipse>
        <path class="cls-46" d="M193.38,14.84c4.9,1,12,.27,13.71.07a1,1,0,0,1,.78.47c1.69,2.25,8.6,11.29,13.67,15.75a1.59,1.59,0,0,1,.53,1.25c-.64,4.35-4.5,27.09-14.59,21.26s-14-33.23-14.59-38.16C192.83,15,193,14.77,193.38,14.84Z"></path>
        <path class="cls-47" d="M197.61,20.48a38.39,38.39,0,0,0,9.48,0,.94.94,0,0,1,.77.46,93.87,93.87,0,0,0,9.44,10.91,1.57,1.57,0,0,1,.53,1.24c-.54,3.52-3.31,19-10.35,14.93s-9.83-22.88-10.35-26.93C197.07,20.69,197.27,20.41,197.61,20.48Z"></path>
      </g>
    </g>
  </g>
</svg>
